<?xml version="1.0" encoding="UTF-8" standalone="no"?>
<!-- Created with Inkscape (http://www.inkscape.org/) -->

<svg
   width="99.407883mm"
   height="29.601318mm"
   viewBox="0 0 99.407883 29.601318"
   version="1.1"
   id="svg1"
   xml:space="preserve"
   xmlns="http://www.w3.org/2000/svg"
   xmlns:svg="http://www.w3.org/2000/svg"><defs
     id="defs1" /><g
     id="layer1"
     transform="translate(-0.81403304,-1.2715614)"><path
       style="font-size:32px;font-family:Pristina;-inkscape-font-specification:'Pristina, Normal';white-space:pre;fill:#f2f2f2;stroke-width:0.553402"
       d="m 35.941608,16.307901 q 0.09887,0.169396 0.09887,0.370557 0,0.37055 -0.374293,1.02696 -0.282488,0.444664 -0.564975,0.899919 -0.572039,2.424477 -1.052267,5.219511 -0.572034,3.303222 -0.593223,4.838377 0.120059,0.487014 0.120059,0.65641 0,0.42349 -0.522603,0.952852 -0.09887,0.09528 -0.190679,0.09528 -0.120057,0 -0.22599,-0.19057 -0.07062,-0.116457 -0.134181,-0.23292 -0.105933,-0.105872 0,-0.910503 -0.621472,-2.456243 -1.744359,-5.611243 -0.967518,-2.710336 -1.384187,-3.493793 -0.289549,1.397517 -1.052265,4.309015 -0.402544,1.556322 -0.812151,3.10206 0.190679,-0.105872 0.593223,1.0799 0.04237,0.116463 0.04237,0.19057 0,0.179987 -0.204804,0.190571 0.134182,-0.01057 -0.338984,-0.01057 -0.437856,0 -0.741529,0.455248 0,0 -0.176555,0.603477 -0.127119,0.444664 -0.360171,0.444664 -0.09181,0 -0.211865,-0.07411 -0.720343,-0.434074 -0.713281,-0.857564 0.01412,-0.550537 1.115825,-1.545738 0.579099,-1.556329 1.475996,-5.007773 0.720342,-2.752685 0.93927,-3.864343 -0.494353,-1.185772 -1.009892,-1.619853 -0.197741,-0.158805 -0.346047,-0.158805 -0.303674,0 -0.812151,0.571712 -0.134181,0.148221 -0.261301,0.148221 -0.16243,0 -0.16243,-0.222336 0,-0.19057 0.148306,-0.402315 0.77684,-1.122249 0.960457,-1.333994 0.395482,-0.476423 0.670907,-0.42349 0.430793,0.07411 1.129949,1.535155 0.148305,-0.550537 0.08475,-0.84698 -0.0071,-0.05292 -0.0071,-0.09529 0,-0.13763 0.07768,-0.13763 0.134182,0 0.409607,0.349375 0.141243,0.179987 0.141243,0.497605 0,0.264677 -0.09181,0.677584 -0.07768,0.307026 -0.148306,0.624644 0.960457,2.011577 1.984473,4.806611 0.93927,2.58329 1.26413,3.970223 0.247177,-2.40331 1.200573,-7.940438 -0.176552,-0.169396 -0.444915,-0.518779 -0.12006,-0.19057 -0.12006,-0.317617 0,-0.17998 0.240115,-0.148222 0.247178,0.02114 1.207635,-1.810416 0.218925,-0.402316 0.367233,-0.402316 0.204801,0 0.529661,0.561121 z m 4.110189,6.669967 q -0.64972,2.699753 -0.896894,4.531343 0.10593,-0.148221 0.275422,-0.455248 0.176557,-0.307034 0.21893,-0.359966 0.09887,-0.190571 0.211866,-0.190571 0.10593,0 0.10593,0.158805 0,0.09529 -0.0565,0.222336 -0.663845,1.471624 -0.882771,2.975014 -0.06356,0.42349 -0.190681,0.42349 -0.120054,0 -0.444915,-0.338792 -0.190681,-0.19057 -0.21893,-0.317617 -0.0353,-0.116457 0,-0.465839 0.296612,-2.689162 0.741532,-4.46782 -0.614412,1.492806 -1.673739,3.303222 -0.925144,1.577504 -1.33475,2.011578 -0.296612,0.307033 -0.45198,0.307033 -0.127119,0 -0.388422,-0.307033 -0.374293,-0.338792 -0.374293,-0.931678 0,-0.116457 0.0141,-0.264678 0.12712,-1.566913 0.918084,-3.642014 0.790964,-2.085692 1.814978,-3.514967 0.331925,-0.465839 0.593223,-0.455256 0.254239,0.02114 0.967521,1.005793 0.06356,0.0847 0.06356,0.179979 0,0.169396 -0.148303,0.169396 -0.0565,0 -0.105935,-0.03178 -0.501413,-0.317618 -0.805089,0.02114 -0.663845,0.730517 -1.468933,2.572699 -0.932208,2.11745 -1.122885,3.81141 -0.007,0.07411 -0.007,0.137637 0,0.264678 0.141243,0.264678 0.240114,0 0.572039,-0.497597 0.790964,-1.154014 1.694923,-2.900907 0.925144,-1.810423 1.186447,-2.73151 0.190676,-0.677584 0.247174,-0.952853 0.09181,-0.476429 0.197741,-0.476429 0.105935,0 0.494352,0.43408 0.162433,0.17998 0.176557,0.328202 0.0141,0.127047 -0.06356,0.444664 z m 9.272646,3.67378 q -0.459044,1.026959 -1.370063,3.620839 -0.08475,0.23292 -0.105935,0.243504 -0.06356,0.05292 -0.296612,-0.05292 -0.487288,-0.222335 -0.487288,-0.42349 0,-0.116463 0.06356,-0.338792 0.529666,-1.852772 0.903959,-3.949047 0.381358,-2.10686 0.367234,-3.229108 0,-0.370558 -0.176553,-0.370558 -0.120059,0 -0.282487,0.201162 -0.600287,0.730516 -1.55368,2.837383 -1.144073,2.54094 -1.617241,4.753672 -0.04943,0.254094 -0.08475,0.285859 -0.04235,0.03178 -0.204801,-0.05292 -0.240114,-0.127047 -0.459044,-0.359966 -0.105931,-0.116456 -0.105931,-0.243503 0,-0.02114 0.105931,-0.412907 0.925148,-3.472618 0.925148,-6.7229 0,-0.328208 -0.12712,-0.328208 -0.09181,0 -0.233054,0.179986 -0.755651,0.952853 -1.680799,3.282048 -0.889834,2.223323 -1.32769,4.171377 -0.112995,0.497597 -0.233049,0.497597 -0.141244,0 -0.579099,-0.476423 -0.112995,-0.09529 -0.112995,-0.201161 0,-0.116456 0.155368,-0.359967 0.289547,-0.921087 0.65678,-3.176175 0.416671,-2.572698 0.360174,-3.737296 -0.105935,0.158806 -0.360174,0.529363 -0.254238,0.359966 -0.381357,0.550537 -0.09181,0.137631 -0.162428,0.137631 -0.105935,0 -0.105935,-0.211745 0,-0.169396 0.07769,-0.296443 0.395482,-0.614061 0.7839,-1.45045 0.141243,-0.296443 0.247178,-0.296443 0.07768,0 0.303672,0.338792 0.176557,0.09528 0.353109,0.19057 0.148308,0.105873 0.148308,0.391725 0,0.0847 -0.0141,0.179987 -0.176557,2.043336 -0.54379,3.81141 1.250008,-3.366746 2.32346,-4.785437 0.148303,-0.201161 0.289547,-0.201161 0.148308,0 0.451979,0.285859 0.289552,0.19057 0.381358,0.338792 0.105935,0.19057 0.105935,0.592886 0,2.159799 -0.331925,3.843168 1.377128,-3.271457 2.507077,-4.859544 0.148303,-0.211745 0.310736,-0.211745 0.211865,0 0.522601,0.42349 0.55085,0.127047 0.522601,1.005785 -0.08475,2.551531 -0.734466,4.933659 0.353109,-0.624645 0.55085,-1.0799 0.09181,-0.222329 0.211865,-0.222329 0.105931,0 0.105931,0.169396 0,0.105873 -0.06356,0.254094 z m 4.41386,0.359966 q -1.716107,3.292632 -2.415266,3.292632 -0.33192,0 -0.840397,-0.688168 -0.529666,-0.370557 -0.529666,-0.995202 0,-0.116463 0.0141,-0.24351 0.127119,-1.45045 0.515542,-3.207933 -0.261303,-0.201162 -0.261303,-0.381141 0,-0.148222 0.148308,-0.148222 0.112995,0 0.233049,0.09528 0.628537,-2.11745 1.129949,-3.006779 0.324861,-0.592886 0.586163,-0.592886 0.120055,0 0.593224,0.307034 -0.0353,-0.317618 0.120054,-0.370558 0.0071,0 0.331925,0 0.303672,0 0.303672,0.158813 0,0.03178 -0.0212,0.179979 -0.0212,0.148222 -0.0212,0.275269 0,0.381141 0.0071,0.942269 0.0071,0.56112 0.0071,0.751691 0,1.312819 -0.480228,1.831598 -0.437856,0.476422 -0.988706,0.476422 -0.289547,0 -0.960456,-0.232919 -0.120055,0.328208 -0.268363,1.281061 -0.197741,1.206946 -0.183617,2.138624 0.0071,0.550537 0.233054,0.550537 0.08475,0 0.218926,-0.06349 0.819213,-0.434081 2.281086,-2.646813 0.09181,-0.137638 0.183617,-0.137638 0.134179,0 0.134179,0.190571 0,0.116463 -0.07062,0.24351 z M 52.91203,22.33205 q 0,-0.412907 -0.120059,-0.412907 -0.07768,0 -0.22599,0.169396 -0.692094,0.836397 -1.214695,2.932672 0.141244,0.03178 0.494353,0.06349 0.572039,0.03178 0.854526,-0.391732 0.211865,-0.317617 0.23305,-1.048134 -0.0212,0.539946 -0.0212,-1.312819 z m 7.019808,-8.734485 q 0.09181,0.105872 0.09181,0.222335 0,0.201155 -0.162428,0.201155 -0.07062,0 -0.148308,-0.06349 -0.324861,-0.243503 -0.487288,-0.243503 -0.44492,0 -0.974581,1.291644 -1.920913,4.690149 -2.733066,12.122398 -0.0212,0.201161 -0.07062,0.539954 0.162432,-0.254095 0.480228,-0.825806 0.183617,-0.328208 0.268363,-0.328208 0.183617,0 0.02825,0.328208 -0.67797,1.45045 -0.896895,3.038537 -0.07769,0.391732 -0.197741,0.391732 -0.0565,0 -0.148308,-0.09529 -0.360169,-0.359966 -0.409607,-0.42349 -0.141243,-0.211745 -0.141243,-0.550537 0,-0.169396 0.0353,-0.412899 0.819213,-6.744082 2.11159,-11.48717 0.974581,-3.57849 1.744361,-4.637215 0.211865,-0.296443 0.423731,-0.285853 0.190676,0.01057 0.494352,0.359967 0.346045,0.42349 0.692094,0.857564 z m 0.790964,13.414049 q -1.716112,3.292632 -2.415266,3.292632 -0.331925,0 -0.840402,-0.688168 -0.529661,-0.370557 -0.529661,-0.995202 0,-0.116463 0.0141,-0.24351 0.127119,-1.45045 0.515537,-3.207933 -0.261299,-0.201162 -0.261299,-0.381141 0,-0.148222 0.148304,-0.148222 0.112995,0 0.233054,0.09528 0.628532,-2.11745 1.129949,-3.006779 0.32486,-0.592886 0.586159,-0.592886 0.120059,0 0.593223,0.307034 -0.0353,-0.317618 0.120059,-0.370558 0.0071,0 0.33192,0 0.303676,0 0.303676,0.158813 0,0.03178 -0.0212,0.179979 -0.0212,0.148222 -0.0212,0.275269 0,0.381141 0.0071,0.942269 0.0071,0.56112 0.0071,0.751691 0,1.312819 -0.480229,1.831598 -0.437855,0.476422 -0.988705,0.476422 -0.289552,0 -0.960457,-0.232919 -0.120059,0.328208 -0.268362,1.281061 -0.197741,1.206946 -0.183617,2.138624 0.0071,0.550537 0.23305,0.550537 0.08475,0 0.218929,-0.06349 0.819213,-0.434081 2.281082,-2.646813 0.09181,-0.137638 0.183617,-0.137638 0.134184,0 0.134184,0.190571 0,0.116463 -0.07062,0.24351 z M 59.896524,22.33205 q 0,-0.412907 -0.120054,-0.412907 -0.07769,0 -0.22599,0.169396 -0.692094,0.836397 -1.214695,2.932672 0.141243,0.03178 0.494352,0.06349 0.572035,0.03178 0.854522,-0.391732 0.211865,-0.317617 0.233054,-1.048134 -0.0212,0.539946 -0.0212,-1.312819 z m 4.731661,-0.783457 q 0,0.476423 -0.169492,1.524564 -0.06356,0.359967 -0.141244,0.465839 -0.0353,0.05292 -0.240114,0.158805 -0.261298,0.148222 -0.32486,0.148222 -0.10593,0 -0.10593,-0.211745 0,-0.116456 0.02825,-0.307027 0.169493,-1.048141 0.12712,-1.450457 -0.0353,-0.412899 0.162427,-0.518771 0.34605,-0.264685 0.44492,-0.264685 0.218925,0 0.218925,0.455255 z m -1.129948,6.077082 q 0.0212,1.27047 -0.939268,1.736309 -0.12006,0.444664 -0.22599,0.61406 -0.162432,0.254094 -0.480228,0.296443 -0.204806,0.02114 -0.437855,-0.03178 -0.416671,-0.09528 -1.024019,-0.232919 -0.169492,-0.04235 -0.204801,-0.307027 0.02825,-0.285859 0.395482,-0.338792 0.501413,-0.05292 1.483058,-0.264685 0.367234,-0.127047 0.522601,-0.624644 0.09181,-0.254094 0.09181,-0.624651 0,-0.666993 -0.444916,-2.35037 -0.437855,-1.64102 -0.409606,-2.191557 0.0565,-1.32341 1.631361,-1.842182 0.155368,-0.05292 0.155368,0.169396 0,0.127047 -0.112994,0.201155 -0.762716,0.497604 -0.762716,1.228121 0,0.285859 0.07062,0.719933 0.07062,0.42349 0.423731,2.053926 0.261303,1.175189 0.268363,1.789249 z m 4.661039,-6.077082 q 0,0.476423 -0.169493,1.524564 -0.06356,0.359967 -0.141243,0.465839 -0.0353,0.05292 -0.240114,0.158805 -0.261299,0.148222 -0.324861,0.148222 -0.10593,0 -0.10593,-0.211745 0,-0.116456 0.02825,-0.307027 0.169492,-1.048141 0.127119,-1.450457 -0.0353,-0.412899 0.162428,-0.518771 0.346049,-0.264685 0.444919,-0.264685 0.218926,0 0.218925,0.455255 z m -1.129949,6.077082 q 0.0212,1.27047 -0.939268,1.736309 -0.120059,0.444664 -0.22599,0.61406 -0.162432,0.254094 -0.480228,0.296443 -0.204806,0.02114 -0.437855,-0.03178 -0.416671,-0.09528 -1.024019,-0.232919 -0.169492,-0.04235 -0.204801,-0.307027 0.02825,-0.285859 0.395482,-0.338792 0.501413,-0.05292 1.483058,-0.264685 0.367234,-0.127047 0.522602,-0.624644 0.09181,-0.254094 0.09181,-0.624651 0,-0.666993 -0.444915,-2.35037 -0.437855,-1.64102 -0.409607,-2.191557 0.0565,-1.32341 1.631362,-1.842182 0.155368,-0.05292 0.155368,0.169396 0,0.127047 -0.112995,0.201155 -0.762716,0.497604 -0.762716,1.228121 0,0.285859 0.07062,0.719933 0.07062,0.42349 0.423731,2.053926 0.261303,1.175189 0.268363,1.789249 z"
       id="text1"
       aria-label="Nameless" /><path
       style="font-size:28.7263px;font-family:'Bauhaus 93';-inkscape-font-specification:'Bauhaus 93, Normal';white-space:pre;fill:#ececec;stroke-width:0.748105"
       d="M 72.840442,18.871744 V 30.41039 H 69.070727 V 14.223085 h 4.91177 q 3.231184,0 5.060328,1.873688 2.172688,2.241327 2.172688,6.083588 0,3.676238 -1.856999,6.000564 -1.856999,2.324334 -4.781774,2.324334 -0.343545,0 -1.123487,-0.04743 v -4.75539 h 0.603523 q 3.296175,0 3.296175,-3.522069 0,-3.308616 -3.240465,-3.308616 z m 18.987835,6.344471 h -5.264595 q -0.120709,-0.509929 -0.120709,-0.936843 0,-0.592946 0.167132,-1.162167 h 1.764152 q -0.1857,-1.316328 -1.160629,-1.316328 -0.649946,0 -1.058489,0.711529 -0.408542,0.699668 -0.408542,1.802542 0,1.150306 0.389974,1.861835 0.399255,0.711529 1.039921,0.711529 0.519957,0 1.002778,-0.66409 l 1.977708,3.035854 q -1.383465,1.38749 -3.073339,1.38749 -2.061274,0 -3.463307,-1.766965 -1.402034,-1.766966 -1.402034,-4.375915 0,-2.597078 1.411321,-4.387768 1.420601,-1.79068 3.481875,-1.79068 2.014844,0 3.379741,1.755104 1.374178,1.74325 1.374178,4.30476 0,0.260892 -0.03714,0.830113 z m 8.393643,-6.629086 -4.326813,12.285752 -4.271104,-12.285752 h 3.31475 l 0.98421,3.190024 1.077063,-3.190024 z"
       id="text3"
       aria-label="Dev" /><path
       style="fill:#ffffff;stroke-width:0.0628706"
       d="m 8.2170282,30.456332 c -1.1324537,-0.03307 -2.059007,-0.08487 -2.059007,-0.115093 0,-0.03023 -0.097351,-0.05496 -0.2163361,-0.05496 -0.1189849,0 -0.2338212,-0.02829 -0.2551922,-0.06287 -0.02137,-0.03458 -0.09377,-0.06287 -0.1608865,-0.06287 -0.067117,0 -0.1220306,-0.02829 -0.1220306,-0.06287 0,-0.03458 -0.05626,-0.06287 -0.1250222,-0.06287 -0.1139722,0 -0.2508375,-0.08609 -0.4747721,-0.298635 -0.045539,-0.04322 -0.098966,-0.07859 -0.1187251,-0.07859 -0.063663,0 -0.5388896,-0.500727 -0.5388896,-0.567807 0,-0.03566 -0.042437,-0.08113 -0.094305,-0.101031 -0.051868,-0.0199 -0.094306,-0.08975 -0.094306,-0.155205 0,-0.06546 -0.028292,-0.119012 -0.06287,-0.119012 -0.034579,0 -0.06287,-0.05356 -0.06287,-0.119015 0,-0.06546 -0.042438,-0.1353 -0.094306,-0.155204 -0.069403,-0.02663 -0.094306,-0.136319 -0.094306,-0.415383 0,-0.210883 -0.027906,-0.379195 -0.062871,-0.379195 -0.037722,0 -0.06287,-0.251484 -0.06287,-0.628706 0,-0.377222 0.025149,-0.628705 0.06287,-0.628705 0.040332,0 0.062871,-0.597268 0.062871,-1.666066 0,-1.439034 0.012851,-1.666068 0.094306,-1.666068 0.06287,0 0.094306,-0.06287 0.094306,-0.188611 0,-0.103735 0.028292,-0.188611 0.06287,-0.188611 0.034579,0 0.06287,-0.05356 0.06287,-0.119014 0,-0.06546 0.042438,-0.1353 0.094306,-0.155202 0.051868,-0.0199 0.094305,-0.09366 0.094305,-0.163904 0,-0.07024 0.024096,-0.127715 0.053546,-0.127715 0.02945,0 0.1423594,-0.08487 0.2509094,-0.188611 0.1085501,-0.103735 0.2114437,-0.188611 0.2286524,-0.188611 0.031781,0 0.230451,-0.155704 0.3810389,-0.298635 0.045539,-0.04322 0.1108189,-0.07859 0.1450652,-0.07859 0.084373,0 0.4759315,-0.208386 0.502071,-0.2672 0.011525,-0.02593 0.11762,-0.04715 0.2357641,-0.04715 0.1181441,0 0.2148073,-0.02829 0.2148073,-0.06287 0,-0.08697 13.7463119,-0.08697 13.8000629,0 0.02137,0.03458 0.277666,0.06287 0.569545,0.06287 0.311878,0 0.530688,0.02593 0.530688,0.06287 0,0.03458 0.06947,0.06287 0.154384,0.06287 0.08491,0 0.25861,0.07073 0.385996,0.157176 0.127387,0.08644 0.265717,0.157175 0.3074,0.157175 0.04168,0 0.126996,0.05658 0.189583,0.125741 0.06259,0.06916 0.165992,0.12574 0.229791,0.12574 0.0638,0 0.115996,0.02829 0.115996,0.06287 0,0.03458 0.04244,0.06287 0.09431,0.06287 0.05187,0 0.0943,0.0518 0.0943,0.115118 0,0.06331 0.06366,0.14933 0.141459,0.191145 0.247294,0.132911 0.612987,0.743313 0.612987,1.023176 0,0.105023 0.0403,0.198863 0.0943,0.219588 0.142238,0.05458 0.142238,4.454689 0,4.509272 -0.06654,0.02553 -0.0943,0.129331 -0.0943,0.352513 0,0.173979 -0.02829,0.316325 -0.06287,0.316325 -0.03458,0 -0.06287,0.05356 -0.06287,0.119015 0,0.06546 -0.04244,0.1353 -0.09431,0.155204 -0.05187,0.0199 -0.0943,0.07951 -0.0943,0.132467 0,0.05295 -0.02829,0.09628 -0.06287,0.09628 -0.03458,0 -0.06287,0.04146 -0.06287,0.09214 0,0.0973 -0.336983,0.473695 -0.424096,0.473695 -0.02811,0 -0.09189,0.05658 -0.141739,0.125743 -0.04985,0.06916 -0.120575,0.12574 -0.157176,0.12574 -0.0366,0 -0.10733,0.05658 -0.157176,0.125741 -0.04985,0.06916 -0.155112,0.125741 -0.233926,0.125741 -0.07881,0 -0.143296,0.02829 -0.143296,0.06287 0,0.03458 -0.07073,0.06287 -0.157177,0.06287 -0.08645,0 -0.157176,0.02545 -0.157176,0.05654 0,0.0311 -0.134385,0.07717 -0.298634,0.102373 -0.458222,0.07032 -10.531863,0.07905 -12.8570069,0.01114 z M 20.84697,29.689012 c 0.02233,-0.05819 0.117888,-0.09431 0.249509,-0.09431 0.117326,0 0.21332,-0.02829 0.21332,-0.06287 0,-0.03458 0.04244,-0.06287 0.09431,-0.06287 0.05187,0 0.09431,-0.02829 0.09431,-0.06287 0,-0.03458 0.05684,-0.06287 0.126313,-0.06287 0.136584,0 0.502392,-0.313957 0.502392,-0.431181 0,-0.03948 0.02829,-0.07178 0.06287,-0.07178 0.03458,0 0.06287,-0.07073 0.06287,-0.157176 0,-0.0978 0.03563,-0.157178 0.09431,-0.157178 0.05239,0 0.09431,-0.05589 0.09431,-0.125741 0,-0.06916 0.02829,-0.12574 0.06287,-0.12574 0.04087,0 0.06287,-0.880187 0.06287,-2.514817 0,-1.634633 -0.02201,-2.51482 -0.06287,-2.51482 -0.03458,0 -0.06287,-0.05747 -0.06287,-0.127712 0,-0.07024 -0.04244,-0.143999 -0.09431,-0.163904 -0.05187,-0.0199 -0.09431,-0.07762 -0.09431,-0.128257 0,-0.100171 -0.147168,-0.2717 -0.233112,-0.2717 -0.02942,0 -0.09427,-0.05658 -0.144111,-0.125741 -0.04985,-0.06916 -0.116429,-0.12574 -0.147963,-0.12574 -0.03153,0 -0.103091,-0.05161 -0.159014,-0.114673 -0.143416,-0.161738 -0.497972,-0.325422 -0.704899,-0.325422 -0.09638,0 -0.192727,-0.02829 -0.214098,-0.06287 -0.02543,-0.04115 -1.958878,-0.06287 -5.595469,-0.06287 -3.636592,0 -5.5700405,-0.02172 -5.5954704,-0.06287 -0.02395,-0.03875 -0.5560086,-0.06287 -1.3868603,-0.06287 -0.8567558,0 -1.3480042,0.02291 -1.3480042,0.06287 0,0.03458 -0.1135504,0.06287 -0.2523347,0.06287 -0.1387843,0 -0.3014615,0.025 -0.3615052,0.05554 -0.060044,0.03054 -0.1940452,0.09416 -0.2977814,0.141357 -0.1037363,0.0472 -0.2112359,0.121229 -0.2388883,0.16451 -0.027652,0.04328 -0.090985,0.07869 -0.1407399,0.07869 -0.1101055,0 -0.343382,0.191556 -0.343382,0.28197 0,0.03597 -0.070729,0.118525 -0.157176,0.183443 -0.087915,0.06602 -0.1571763,0.181782 -0.1571763,0.262694 0,0.07956 -0.028292,0.162145 -0.06287,0.183515 -0.034579,0.02138 -0.062871,0.147328 -0.062871,0.279903 0,0.156263 -0.033169,0.253772 -0.094306,0.277233 -0.1422278,0.05458 -0.1422278,4.426622 0,4.4812 0.053756,0.02064 0.094306,0.114396 0.094306,0.218073 0,0.100036 0.028292,0.181885 0.062871,0.181885 0.034579,0 0.06287,0.03915 0.06287,0.08699 0,0.07763 0.2195817,0.297469 0.6195664,0.620305 0.074974,0.06051 0.1784305,0.110022 0.2299033,0.110022 0.051473,0 0.093587,0.02829 0.093587,0.06287 0,0.03458 0.06906,0.06287 0.1534657,0.06287 0.084406,0 0.170951,0.02829 0.1923217,0.06287 0.02137,0.03458 0.1588407,0.06287 0.3054887,0.06287 0.1466479,0 0.2935094,0.02612 0.3263593,0.05803 0.03285,0.03192 0.1446022,0.07012 0.2483384,0.08489 0.103736,0.01476 3.2662212,0.03109 7.0277452,0.03627 6.027054,0.0083 6.843432,-0.0019 6.875323,-0.08489 z"
       id="path14" /><path
       style="fill:#ffffff;stroke-width:0.0628706"
       d="m 12.319325,28.651649 c 0,-0.04037 -0.609245,-0.06287 -1.701993,-0.06287 -1.7811801,0 -1.7564532,0.0036 -1.9173545,-0.281519 -0.047643,-0.08443 -0.047643,-0.16119 0,-0.264054 l 0.067167,-0.145019 4.2123205,-5.29e-4 4.21232,-5.29e-4 0.172894,0.148696 c 0.09509,0.08178 0.172893,0.198697 0.172893,0.259807 0,0.06111 -0.0778,0.178025 -0.172893,0.259808 l -0.172894,0.148696 -2.43623,7.9e-5 c -1.582291,4.8e-5 -2.43623,-0.02196 -2.43623,-0.0628 z"
       id="path15" /><path
       style="fill:#ffffff;stroke-width:0.0628706"
       d="m 15.305671,26.891278 c -0.02137,-0.03458 -0.190884,-0.06287 -0.376696,-0.06287 -0.282624,0 -0.344363,-0.02056 -0.377749,-0.12574 -0.02195,-0.06916 -0.06629,-0.125741 -0.09854,-0.125741 -0.113359,0 -0.05682,-0.144103 0.11426,-0.291245 0.16488,-0.141804 0.215876,-0.148699 1.100233,-0.148773 0.576363,-4.8e-5 0.927338,0.02371 0.927338,0.06279 0,0.03458 0.04244,0.06287 0.09431,0.06287 0.05187,0 0.09431,0.05423 0.09431,0.120502 0,0.06627 0.03537,0.134773 0.07859,0.152212 0.06287,0.02537 0.06287,0.03271 0,0.03668 -0.04322,0.0027 -0.07859,0.06155 -0.07859,0.130705 0,0.10179 -0.04191,0.12574 -0.220047,0.12574 -0.121025,0 -0.220046,0.02829 -0.220046,0.06287 0,0.03664 -0.208332,0.06287 -0.499253,0.06287 -0.27459,0 -0.516739,-0.02829 -0.53811,-0.06287 z"
       id="path16" /><path
       style="fill:#ffffff;stroke-width:0.0628706"
       d="m 14.63591,25.268629 c -0.128913,-0.13184 -0.154794,-0.253569 -0.09277,-0.436359 0.04715,-0.138954 0.06615,-0.141457 1.073425,-0.141457 1.074024,0 1.105419,0.0077 1.192975,0.293698 0.0297,0.09701 0.0012,0.174339 -0.09847,0.2672 -0.129154,0.120325 -0.212787,0.130382 -1.055749,0.126939 -0.773474,-0.0031 -0.931606,-0.02021 -1.019411,-0.110021 z"
       id="path17" /><path
       style="fill:#ffffff;stroke-width:0.0628706"
       d="m 20.209566,25.445257 c -0.02192,-0.03546 -0.32698,-0.06287 -0.699776,-0.06287 -0.723237,0 -0.84055,-0.04826 -0.84055,-0.345786 0,-0.31595 0.09703,-0.345964 1.11146,-0.3438 0.89486,0.0019 0.938689,0.008 1.104723,0.15416 0.09509,0.0837 0.172894,0.181821 0.172894,0.218059 0,0.0972 -0.237306,0.317367 -0.342077,0.317367 -0.04983,0 -0.10808,0.02829 -0.129451,0.06287 -0.02137,0.03458 -0.106246,0.06287 -0.188611,0.06287 -0.08237,0 -0.167241,-0.02829 -0.188612,-0.06287 z"
       id="path18" /><path
       style="fill:#ffffff;stroke-width:0.0628706"
       d="m 18.952157,26.891278 c -0.02137,-0.03458 -0.09377,-0.06287 -0.160886,-0.06287 -0.100812,0 -0.122031,-0.04451 -0.122031,-0.255974 0,-0.414356 0.0543,-0.435602 1.113298,-0.435602 0.861545,0 0.940669,0.0097 1.024297,0.125741 0.04985,0.06916 0.126821,0.125741 0.171056,0.125741 0.04423,0 0.08043,0.07073 0.08043,0.157178 0,0.08644 -0.03619,0.157176 -0.08043,0.157176 -0.04424,0 -0.12121,0.05658 -0.171056,0.12574 -0.08305,0.115226 -0.162752,0.125741 -0.953225,0.125741 -0.507247,0 -0.878604,-0.0259 -0.901453,-0.06287 z"
       id="path19" /><path
       style="fill:#ffffff;stroke-width:0.0628706"
       d="m 19.328265,26.895353 c -0.242665,-0.02281 -0.476071,-0.06302 -0.518681,-0.08935 -0.04261,-0.02633 -0.07747,-0.157472 -0.07747,-0.291417 0,-0.314021 0.0446,-0.327361 1.108886,-0.331661 0.798029,-0.0032 0.850091,0.0043 0.998195,0.143391 0.19279,0.181115 0.195422,0.255905 0.0148,0.420365 -0.166752,0.151826 -0.817565,0.215246 -1.525723,0.148677 z"
       id="path20" /><path
       style="fill:#ffffff;stroke-width:0.0628706"
       d="m 19.328265,26.895353 c -0.242665,-0.02281 -0.476071,-0.06302 -0.518681,-0.08935 -0.04261,-0.02633 -0.07747,-0.157472 -0.07747,-0.291417 0,-0.314021 0.0446,-0.327361 1.108886,-0.331661 0.798029,-0.0032 0.850091,0.0043 0.998195,0.143391 0.19279,0.181115 0.195422,0.255905 0.0148,0.420365 -0.166752,0.151826 -0.817565,0.215246 -1.525723,0.148677 z"
       id="path21" /><path
       style="fill:#ffffff;stroke-width:0.0628706"
       d="m 19.328265,26.895353 c -0.242665,-0.02281 -0.476071,-0.06302 -0.518681,-0.08935 -0.04261,-0.02633 -0.07747,-0.157472 -0.07747,-0.291417 0,-0.314021 0.0446,-0.327361 1.108886,-0.331661 0.798029,-0.0032 0.850091,0.0043 0.998195,0.143391 0.19279,0.181115 0.195422,0.255905 0.0148,0.420365 -0.166752,0.151826 -0.817565,0.215246 -1.525723,0.148677 z"
       id="path22" /><path
       style="fill:#ffffff;stroke-width:0.0628706"
       d="m 19.328265,26.895353 c -0.242665,-0.02281 -0.476071,-0.06302 -0.518681,-0.08935 -0.04261,-0.02633 -0.07747,-0.157472 -0.07747,-0.291417 0,-0.314021 0.0446,-0.327361 1.108886,-0.331661 0.798029,-0.0032 0.850091,0.0043 0.998195,0.143391 0.19279,0.181115 0.195422,0.255905 0.0148,0.420365 -0.166752,0.151826 -0.817565,0.215246 -1.525723,0.148677 z"
       id="path23" /><path
       style="fill:#ffffff;stroke-width:0.0628706"
       d="m 19.295211,26.895528 c -0.226266,-0.024 -0.445526,-0.06475 -0.487246,-0.09053 -0.04172,-0.0258 -0.07585,-0.156472 -0.07585,-0.290417 0,-0.314021 0.0446,-0.327361 1.108886,-0.331661 0.798029,-0.0032 0.850091,0.0043 0.998195,0.143391 0.192786,0.181113 0.195413,0.255805 0.0148,0.420759 -0.166236,0.151821 -0.883365,0.22012 -1.558777,0.148458 z"
       id="path24" /><path
       style="fill:#ffffff;stroke-width:0.0628706"
       d="m 19.261918,26.895401 c -0.209998,-0.02519 -0.415113,-0.0664 -0.455811,-0.09155 -0.0407,-0.02516 -0.074,-0.155324 -0.074,-0.289269 0,-0.314021 0.0446,-0.327361 1.108886,-0.331661 0.798029,-0.0032 0.850091,0.0043 0.998195,0.143391 0.192781,0.181107 0.195401,0.255683 0.0148,0.421243 -0.111947,0.102621 -0.252947,0.136351 -0.675857,0.161671 -0.29392,0.0176 -0.706216,0.01138 -0.916214,-0.01384 z"
       id="path25" /><path
       style="fill:#ffffff;stroke-width:0.0628706"
       d="m 19.228312,26.895702 c -0.459372,-0.06359 -0.496201,-0.09188 -0.496201,-0.381121 0,-0.314021 0.0446,-0.327361 1.108886,-0.331661 0.798029,-0.0032 0.850091,0.0043 0.998195,0.143391 0.192763,0.181089 0.195355,0.25522 0.0148,0.423064 -0.11477,0.106687 -0.248214,0.137501 -0.707293,0.163314 -0.311208,0.01749 -0.724481,0.0098 -0.918383,-0.01699 z"
       id="path26" /><path
       style="fill:#ffffff;stroke-width:0.0628706"
       d="m 19.194283,26.894803 c -0.429043,-0.06774 -0.462172,-0.095 -0.462172,-0.380222 0,-0.314021 0.0446,-0.327361 1.108886,-0.331661 0.798029,-0.0032 0.850091,0.0043 0.998195,0.143391 0.192756,0.181084 0.195339,0.255053 0.0148,0.423717 -0.116691,0.109011 -0.246034,0.137729 -0.738728,0.164018 -0.328498,0.01754 -0.742938,0.0089 -0.920978,-0.01923 z"
       id="path27" /><path
       style="fill:#ffffff;stroke-width:0.0628706"
       d="m 19.194283,26.895165 c -0.17804,-0.02831 -0.354863,-0.07073 -0.392941,-0.09426 -0.08643,-0.05342 -0.09216,-0.538332 -0.0064,-0.538332 0.03458,0 0.06287,-0.04077 0.06287,-0.09059 0,-0.134186 0.103684,-0.173964 0.200662,-0.07699 0.06286,0.06286 0.284375,0.08355 0.848872,0.07928 0.725645,-0.0055 0.771915,0.0019 0.925937,0.146523 0.199105,0.18705 0.202291,0.25935 0.01902,0.431525 -0.119338,0.112112 -0.242034,0.139415 -0.738727,0.164381 -0.327592,0.01646 -0.74129,0.0068 -0.919329,-0.02154 z"
       id="path28" /><path
       style="fill:#ffffff;stroke-width:0.0628706"
       d="m 18.747828,23.779453 c -0.186991,-0.212386 -0.03792,-0.597532 0.231274,-0.597532 0.07163,0 0.130231,-0.02829 0.130231,-0.06287 0,-0.03458 0.111497,-0.06287 0.247772,-0.06287 0.136274,0 0.265256,0.02829 0.286627,0.06287 0.02147,0.03473 0.304527,0.06287 0.632415,0.06287 0.353792,0 0.593559,0.0254 0.593559,0.06287 0,0.03458 0.04244,0.06287 0.09431,0.06287 0.06586,0 0.09431,0.06637 0.09431,0.220049 0,0.153683 -0.02844,0.220046 -0.09431,0.220046 -0.05187,0 -0.09431,0.02829 -0.09431,0.06287 0,0.03943 -0.380868,0.06198 -1.021645,0.06048 -0.801371,-0.0019 -1.038589,-0.02164 -1.100233,-0.09165 z"
       id="path29" /><path
       style="fill:#ffffff;stroke-width:0.0628706"
       d="m 20.288887,23.137455 c 0.07821,-0.01503 0.191372,-0.01447 0.251482,0.0013 0.06011,0.01574 -0.0039,0.02804 -0.142191,0.02734 -0.138315,-7.94e-4 -0.187496,-0.01357 -0.109291,-0.02861 z"
       id="path30" /><path
       style="fill:#ffffff;stroke-width:0.0628706"
       d="m 14.626,23.731206 c -0.0759,-0.09376 -0.10237,-0.199466 -0.07943,-0.317169 0.0648,-0.332499 0.140546,-0.357857 1.068963,-0.357857 0.526914,0 0.853242,0.02405 0.853242,0.06287 0,0.03458 0.07073,0.06287 0.157176,0.06287 0.115262,0 0.157176,0.03353 0.157176,0.12574 0,0.06916 0.02829,0.125744 0.06287,0.125744 0.117227,0 0.06362,0.141898 -0.110023,0.291242 -0.164703,0.14165 -0.216082,0.148659 -1.084515,0.147939 -0.867484,-7.93e-4 -0.917133,-0.0076 -1.025459,-0.141379 z"
       id="path31" /><path
       style="fill:#ffffff;stroke-width:0.0628706"
       d="m 10.747564,23.810626 c 0,-0.03458 -0.0586,-0.06287 -0.130232,-0.06287 -0.1579,0 -0.309861,-0.140666 -0.309861,-0.286829 0,-0.05896 0.0778,-0.174112 0.172893,-0.255895 0.16365,-0.140748 0.219113,-0.148701 1.037363,-0.148775 0.53445,-4.8e-5 0.864468,0.02392 0.864468,0.06279 0,0.03458 0.07073,0.06287 0.157177,0.06287 0.144369,0 0.157176,0.02304 0.157176,0.282919 0,0.238135 -0.01932,0.282916 -0.122031,0.282916 -0.06712,0 -0.139516,0.02829 -0.160887,0.06287 -0.05212,0.08433 -1.666066,0.08433 -1.666066,0 z"
       id="path32" /><path
       style="fill:#ffffff;stroke-width:0.0628706"
       d="m 10.47322,25.216638 c -0.210298,-0.210299 -0.208781,-0.317011 0.0071,-0.502716 0.160581,-0.138107 0.225549,-0.148701 0.912307,-0.148773 0.621299,-6.6e-5 0.784496,0.02111 1.021644,0.132588 0.320704,0.150747 0.374067,0.341334 0.156491,0.558909 -0.114069,0.114069 -0.209568,0.12574 -1.028789,0.12574 -0.89188,0 -0.905098,-0.0021 -1.068797,-0.165748 z"
       id="path33" /><path
       style="fill:#ffffff;stroke-width:0.0628706"
       d="m 10.386059,26.734365 c -0.04322,-0.04909 -0.07859,-0.163206 -0.07859,-0.253582 0,-0.317233 0.09244,-0.343951 1.190047,-0.343951 0.631699,0 1.010418,0.02358 1.010418,0.06287 0,0.03458 0.04244,0.06287 0.09431,0.06287 0.06586,0 0.09431,0.06636 0.09431,0.220046 0,0.153683 -0.02844,0.220049 -0.09431,0.220049 -0.05187,0 -0.09431,0.02829 -0.09431,0.06287 0,0.03943 -0.380867,0.06198 -1.021644,0.06048 -0.801371,-0.0019 -1.038589,-0.02164 -1.100233,-0.09165 z"
       id="path34" /><path
       style="fill:#ffffff;stroke-width:0.0628706"
       d="m 8.1580873,26.093885 c 0.045385,-0.01815 0.09961,-0.01593 0.1205018,0.005 0.020891,0.0209 -0.016243,0.03575 -0.082518,0.03302 -0.073241,-0.003 -0.088138,-0.01791 -0.037984,-0.03798 z"
       id="path35" /><path
       style="fill:#ffffff;stroke-width:0.0628706"
       d="m 7.2425363,24.39312 c 0.1642491,-0.01294 0.4330203,-0.01294 0.5972694,0 0.1642491,0.01294 0.029863,0.02355 -0.2986347,0.02355 -0.3284979,0 -0.4628835,-0.01061 -0.2986347,-0.02355 z"
       id="path36" /><path
       style="fill:#ffffff;stroke-width:0.0628706"
       d="M 6.3938977,25.266615 C 6.2611005,25.186475 6.2210904,25.114017 6.2210039,24.95352 c -1.95e-4,-0.362542 0.074216,-0.388448 1.1157273,-0.388448 0.9210238,0 0.9384331,0.0026 1.0732883,0.157655 0.182358,0.20973 0.1733659,0.285467 -0.057997,0.488484 -0.1912469,0.167815 -0.2106851,0.171064 -0.9902097,0.165428 -0.621646,-0.0045 -0.8328319,-0.0285 -0.9679151,-0.110024 z"
       id="path37" /><path
       style="fill:#ffffff;stroke-width:0.0628706"
       d="m 7.7140648,26.972648 c 0.077802,-0.01498 0.2051148,-0.01498 0.2829169,0 0.077802,0.01498 0.014147,0.02725 -0.1414584,0.02725 -0.1556044,0 -0.2192608,-0.01225 -0.1414585,-0.02725 z"
       id="path38" /><path
       style="fill:#ffffff;stroke-width:0.0628706"
       d="m 6.3466326,26.776161 c 0,-0.02874 -0.070729,-0.0901 -0.1571763,-0.136364 -0.1757783,-0.09407 -0.1940414,-0.159075 -0.078588,-0.279704 0.043223,-0.04516 0.1201983,-0.142163 0.1710552,-0.215556 0.08608,-0.124227 0.1479637,-0.133445 0.8959038,-0.133445 0.4937109,0 0.8034366,0.02424 0.8034366,0.06287 0,0.03458 0.099021,0.06287 0.2200466,0.06287 0.2025827,0 0.2200465,0.01498 0.2200465,0.188611 0,0.103738 0.032692,0.188611 0.072649,0.188611 0.039957,0 -0.00955,0.0707 -0.1100233,0.157102 -0.1769597,0.152185 -0.2116741,0.157101 -1.1100115,0.157175 -0.5100364,4.3e-5 -0.9273391,-0.02344 -0.9273386,-0.05217 z"
       id="path39" /><path
       style="fill:#ffffff;stroke-width:0.0628706"
       d="m 6.2994799,23.653713 c -0.043224,-0.04909 -0.078588,-0.163206 -0.078588,-0.253582 0,-0.312804 0.099485,-0.343951 1.0985998,-0.343951 0.8918691,0 0.9235209,0.0046 1.0732883,0.154318 0.174974,0.174975 0.195385,0.316561 0.064504,0.447443 -0.1300888,0.130087 -2.0428466,0.126341 -2.1578035,-0.0042 z"
       id="path40" /><path
       style="fill:#ffffff;stroke-width:0.0628706"
       d="m 2.5744067,15.150221 c 2e-7,-0.02593 5.0049299,-0.04715 11.1220663,-0.04715 6.117136,0 11.108952,0.02122 11.092924,0.04715 -0.03811,0.06166 -22.2149914,0.06166 -22.2149903,0 z"
       id="path41" /><path
       style="fill:#ffffff;stroke-width:0.0628706"
       d="m 9.9931184,19.158214 c 0,-0.03458 -0.030312,-0.06287 -0.067361,-0.06287 -0.08338,0 -0.2469909,-0.158512 -0.2469909,-0.239295 0,-0.03281 -0.042438,-0.09488 -0.094306,-0.137929 -0.096733,-0.08028 -0.1317181,-0.313921 -0.047153,-0.314897 0.025934,-2.65e-4 0.151358,-0.09932 0.2787203,-0.220046 0.2198292,-0.208378 0.2541792,-0.219501 0.6776812,-0.219501 h 0.446115 l -0.01754,-0.833035 -0.01754,-0.833033 -4.4774995,-0.03144 c -4.1465029,-0.02911 -4.4869978,-0.03957 -4.6059788,-0.14146 -0.070663,-0.06051 -0.178493,-0.110021 -0.2396218,-0.110021 -0.061129,0 -0.1519258,-0.05658 -0.2017718,-0.125741 -0.049846,-0.06916 -0.1268209,-0.125743 -0.1710556,-0.125743 -0.044234,0 -0.080426,-0.05453 -0.080426,-0.121177 0,-0.06665 -0.070729,-0.176813 -0.15717596,-0.244813 L 0.81403304,15.273578 V 8.7283845 c 0,-5.77604 0.011082,-6.545197 0.094306,-6.545197 0.051868,0 0.094306,-0.04987 0.094306,-0.110818 0,-0.06095 0.0754,-0.167044 0.1675551,-0.235765 0.092155,-0.06872 0.2033012,-0.160311 0.246991,-0.203533 0.04369,-0.04322 0.1097486,-0.07859 0.1467972,-0.07859 0.037049,0 0.067361,-0.02829 0.067361,-0.06287 0,-0.03458 0.050925,-0.06287 0.1131668,-0.06287 0.062242,0 0.148531,-0.03536 0.1917536,-0.07859 0.0623,-0.0623 2.4735136,-0.07859 11.6340863,-0.07859 9.113581,0 11.590725,0.01662 11.722196,0.07859 0.09168,0.04322 0.240803,0.113466 0.331378,0.156096 0.147791,0.06956 0.489868,0.381619 0.699788,0.638376 0.04322,0.05287 0.07859,0.166378 0.07859,0.252243 0,0.08586 0.02829,0.173604 0.06287,0.194974 0.08693,0.05372 0.08693,12.2283045 0,12.2283045 -0.03458,0 -0.06287,0.100906 -0.06287,0.224239 0,0.206748 -0.224671,0.607962 -0.408287,0.729107 -0.03478,0.02294 -0.148116,0.114861 -0.251851,0.204253 -0.103738,0.08939 -0.236453,0.16256 -0.294926,0.162603 -0.05847,4.2e-5 -0.123799,0.02837 -0.145169,0.06295 -0.02529,0.04091 -1.558218,0.06336 -4.388924,0.06427 -4.053124,0.0013 -4.359873,0.0089 -4.493714,0.111945 -0.136924,0.105373 -0.142809,0.144291 -0.125741,0.831636 l 0.01791,0.721087 0.450306,0.01836 c 0.299215,0.0122 0.475831,0.04912 0.526379,0.110025 0.04184,0.05041 0.11314,0.09166 0.158445,0.09166 0.0453,0 0.100329,0.05658 0.122279,0.12574 0.02195,0.06916 0.06629,0.125741 0.09854,0.125741 0.03225,0 0.05863,0.09902 0.05863,0.220046 0,0.121026 -0.02639,0.220046 -0.05863,0.220046 -0.03225,0 -0.07659,0.05658 -0.09854,0.125741 -0.02195,0.06916 -0.09292,0.125743 -0.157703,0.125743 -0.06479,0 -0.135278,0.02829 -0.156649,0.06287 -0.02517,0.04073 -1.310454,0.06287 -3.650197,0.06287 -2.365647,0 -3.61134,-0.0217 -3.61134,-0.06287 z m 4.8914206,-1.854679 c 0.01043,-0.345786 0.0021,-0.720653 -0.01857,-0.833032 l -0.03753,-0.20433 -1.113101,0.0021 c -0.825846,0.0016 -1.141495,0.02355 -1.223125,0.08552 -0.09417,0.07149 -0.110023,0.193657 -0.110023,0.84808 v 0.764561 l 1.241691,-0.01704 1.241691,-0.01704 z m 9.883135,-2.16903 c 0,-0.03458 0.04244,-0.06287 0.09431,-0.06287 0.05187,0 0.0943,-0.03941 0.0943,-0.08758 0,-0.04817 0.04244,-0.103865 0.09431,-0.123767 0.07462,-0.02864 0.09431,-0.160197 0.09431,-0.63029 0,-0.326755 -0.01717,-0.638853 -0.03816,-0.693547 -0.0346,-0.09018 -1.098002,-0.09945 -11.405845,-0.09945 -6.2522247,0 -11.4124334,0.01717 -11.4671296,0.03816 -0.08141,0.03124 -0.099448,0.150974 -0.099448,0.660138 0,0.342088 0.026323,0.62198 0.058498,0.62198 0.032174,0 0.067538,0.06366 0.078588,0.141457 0.012912,0.09091 0.070641,0.148638 0.161549,0.161549 0.077802,0.01106 0.1414585,0.04641 0.1414585,0.07859 0,0.03586 4.2937728,0.0585 11.0966331,0.0585 7.355843,0 11.096635,-0.02119 11.096635,-0.06287 z m 0.339061,-2.991488 c 0.02098,-0.0547 0.03816,-2.1651355 0.03816,-4.6898665 0,-4.223901 -0.0086,-4.604996 -0.10786,-4.773012 -0.05932,-0.100428 -0.1442,-0.182594 -0.188613,-0.182594 -0.04441,0 -0.08075,-0.02829 -0.08075,-0.06287 0,-0.0871 -22.1079998,-0.0871 -22.161833,0 -0.02137,0.03458 -0.097724,0.06287 -0.169673,0.06287 -0.3028421,0 -0.2977256,-0.08288 -0.2998558,4.857596 -0.00153,3.5850305 0.0157,4.6658935 0.075994,4.7624375 0.07735,0.123854 0.1720151,0.124886 11.4671298,0.124886 10.327406,0 11.392694,-0.0093 11.427299,-0.09945 z"
       id="path42" /><path
       style="fill:#ffffff;stroke-width:0.0628706"
       d="m 13.378142,14.548217 c -0.109306,-0.08314 -0.135568,-0.169238 -0.12321,-0.403923 0.0067,-0.127855 0.03919,-0.141409 0.337519,-0.140967 0.295297,5.29e-4 0.338203,0.01802 0.407271,0.166772 0.06984,0.150434 0.06086,0.180334 -0.09431,0.313785 -0.189674,0.163129 -0.368677,0.18497 -0.527275,0.06433 z"
       id="path43" /><path
       style="fill:#ffffff;stroke-width:0.0019647"
       d="m 13.509934,14.662121 c -0.05451,-0.0011 -0.06289,-0.0016 -0.07026,-0.0048 -0.0061,-0.0027 -0.0086,-0.0051 -0.0094,-0.0088 -0.0032,-0.01585 -0.01215,-0.04378 -0.01671,-0.05211 -0.01631,-0.02981 -0.04034,-0.04393 -0.08892,-0.05223 -0.0269,-0.0046 -0.02847,-0.0052 -0.03523,-0.0127 -0.003,-0.0033 -0.0066,-0.0073 -0.0081,-0.009 -0.0016,-0.0019 -0.0037,-0.01148 -0.005,-0.02387 -0.0012,-0.01151 -0.0036,-0.02698 -0.0053,-0.03438 -0.0017,-0.0074 -0.0035,-0.0159 -0.0041,-0.01889 -5.82e-4,-0.003 -0.0018,-0.0059 -0.0028,-0.0065 -9.52e-4,-5.29e-4 -0.0017,-0.0026 -0.0017,-0.0043 0,-0.0074 -0.01299,-0.02855 -0.02401,-0.03905 -0.0063,-0.006 -0.01466,-0.0159 -0.01852,-0.02193 -0.0098,-0.01537 -0.02676,-0.03254 -0.04219,-0.0428 -0.01316,-0.0088 -0.03306,-0.01852 -0.03774,-0.01852 -0.0017,0 -0.0033,-0.0067 -0.0051,-0.02111 -0.0014,-0.01162 -0.0032,-0.02511 -0.0039,-0.02996 -9.79e-4,-0.0066 -3.44e-4,-0.01109 0.0025,-0.01767 0.0021,-0.0049 0.0046,-0.0094 0.0056,-0.01005 10e-4,-7.93e-4 0.007,-0.0019 0.0133,-0.0024 0.0129,-0.0013 0.04523,-0.0096 0.05761,-0.01468 0.01405,-0.0058 0.02803,-0.01574 0.03545,-0.02527 l 0.0071,-0.0092 v 0.0079 c 0,0.0043 -5.82e-4,0.01593 -0.0013,0.02577 -0.0012,0.01767 -0.0014,0.01791 -0.0071,0.01995 -0.0088,0.003 -0.05818,0.0095 -0.0839,0.0109 -0.01241,7.94e-4 -0.02303,0.0021 -0.0236,0.0029 -5.82e-4,0.0011 -7.41e-4,0.0056 -3.44e-4,0.01035 l 6.88e-4,0.0087 0.02291,0.0032 c 0.0126,0.0019 0.02556,0.0041 0.02881,0.0052 0.03719,0.01212 0.03966,0.0132 0.05026,0.02201 0.0061,0.005 0.01195,0.01167 0.01313,0.01474 0.0012,0.0031 0.0036,0.01664 0.0054,0.03016 0.0043,0.03233 0.01258,0.06391 0.02262,0.08666 l 0.0081,0.01844 0.0011,0.03514 c 9e-4,0.02949 0.0016,0.03568 0.0044,0.03848 0.0027,0.0027 0.0088,0.0036 0.03045,0.0046 l 0.02712,0.0013 0.01347,0.01088 c 0.01664,0.01344 0.04556,0.03314 0.06283,0.0428 l 0.01299,0.0072 0.0022,0.01423 c 0.0012,0.0078 0.0027,0.02217 0.0034,0.03189 6.61e-4,0.0097 0.0016,0.01812 0.0022,0.01865 0.0014,0.0013 0.31233,0.0024 0.322033,0.0011 l 0.008,-0.0011 0.0026,-0.02106 c 0.0034,-0.02793 0.007,-0.04411 0.013,-0.05839 0.0047,-0.01125 0.0058,-0.01236 0.02402,-0.02392 0.02205,-0.014 0.03197,-0.01651 0.08097,-0.0205 0.03543,-0.0029 0.03902,-0.0048 0.03918,-0.02117 1.05e-4,-0.01027 0.0025,-0.02725 0.0063,-0.04542 10e-4,-0.0049 0.002,-0.01003 0.0023,-0.01146 2.23e-4,-0.0013 0.01057,-0.01257 0.023,-0.02474 0.02187,-0.0214 0.02297,-0.02217 0.03438,-0.02434 0.01439,-0.0027 0.03908,-0.0056 0.06338,-0.0073 0.01641,-0.0011 0.01829,-0.0019 0.01924,-0.0055 0.0013,-0.0052 2.64e-4,-0.151855 -0.0011,-0.153205 -5.29e-4,-5.29e-4 -0.0085,-0.0021 -0.01768,-0.0032 -0.0092,-0.0013 -0.02258,-0.0037 -0.02976,-0.0053 l -0.01307,-0.0031 -0.0084,-0.01987 c -0.01304,-0.03097 -0.04005,-0.08514 -0.05056,-0.101399 -0.0052,-0.0081 -0.01465,-0.02077 -0.02092,-0.02813 l -0.01139,-0.01339 -10e-4,-0.03867 c -6.62e-4,-0.02508 -0.0018,-0.03918 -0.0032,-0.04012 -0.0012,-7.94e-4 -0.02163,-0.0016 -0.0454,-0.0016 -0.02377,-4.8e-5 -0.05914,-0.0013 -0.07859,-0.0029 -0.04261,-0.0034 -0.16925,-0.0037 -0.297652,-5.29e-4 -0.04809,0.0011 -0.115721,0.0026 -0.1503,0.0033 l -0.06287,0.0013 -5.82e-4,0.02652 c -5.82e-4,0.02598 -6.88e-4,0.0266 -0.0057,0.03028 l -0.0051,0.0038 0.0014,-0.0293 c 0.0019,-0.04053 -0.0031,-0.0372 0.06011,-0.04005 0.02755,-0.0013 0.05762,-0.003 0.0668,-0.0039 0.10385,-0.01013 0.183888,-0.01463 0.273093,-0.01535 0.08513,-7.93e-4 0.08259,-7.93e-4 0.111988,0.0095 0.0087,0.0031 0.049,0.0074 0.08939,0.0096 0.03365,0.0019 0.04045,0.0027 0.04737,0.0063 l 0.0081,0.0042 0.0013,0.0185 c 0.0013,0.01842 0.0027,0.02731 0.0083,0.05163 0.0034,0.015 0.0055,0.02019 0.01537,0.03825 0.004,0.0074 0.02352,0.02463 0.02782,0.02463 0.0015,0 0.0028,7.93e-4 0.0028,0.0019 0,0.0041 0.0149,0.02495 0.02538,0.03554 0.01284,0.01299 0.03361,0.02677 0.05027,0.03336 0.0065,0.0026 0.01199,0.0047 0.01223,0.0048 2.46e-4,1.06e-4 0.0014,0.0063 0.0026,0.01384 0.0012,0.0075 0.003,0.01849 0.004,0.02445 0.003,0.01775 0.0022,0.155821 -0.001,0.165658 -0.0015,0.0045 -0.0032,0.01066 -0.0039,0.01363 -8.46e-4,0.0038 -0.0025,0.0054 -0.0053,0.0054 -0.007,0 -0.0337,0.0075 -0.04865,0.01365 -0.03513,0.0145 -0.05515,0.03779 -0.06802,0.07919 -0.0019,0.0062 -0.0042,0.0113 -0.0051,0.0113 -8.46e-4,0 -0.0027,0.0011 -0.0042,0.0024 -0.0014,0.0013 -0.0067,0.0056 -0.01173,0.0093 -0.005,0.0038 -0.01064,0.0091 -0.01248,0.01183 -0.0027,0.0041 -0.0065,0.0056 -0.02102,0.0085 -0.0097,0.0019 -0.01914,0.0043 -0.02092,0.0052 -0.0018,7.94e-4 -0.0092,0.0041 -0.01652,0.007 -0.0073,0.0029 -0.01659,0.0079 -0.02063,0.01093 -0.004,0.0031 -0.0094,0.0072 -0.0119,0.0091 -0.0068,0.0052 -0.02113,0.02582 -0.02506,0.03592 -0.0019,0.0049 -0.0041,0.0097 -0.0048,0.0108 -7.67e-4,0.0011 -0.0025,0.0065 -0.0038,0.01204 l -0.0023,0.01005 -0.01804,0.0041 c -0.01672,0.0038 -0.02521,0.0042 -0.116272,0.0048 -0.05403,2.65e-4 -0.126085,1.98e-4 -0.160123,-5.29e-4 z"
       id="path44" /><path
       style="fill:#ffffff;stroke-width:0.0019647"
       d="m 13.518775,14.684536 c -0.07032,-0.0024 -0.07624,-0.0031 -0.0946,-0.01177 -0.0034,-0.0016 -0.007,-0.0029 -0.0079,-0.0029 -0.0017,0 -0.02807,-0.0098 -0.03819,-0.01421 -0.0028,-0.0013 -0.0074,-0.0058 -0.01025,-0.01021 -0.009,-0.01402 -0.02539,-0.03 -0.0424,-0.04126 -0.0091,-0.006 -0.0177,-0.01093 -0.01916,-0.01093 -0.0015,0 -0.0027,-7.94e-4 -0.0027,-0.0016 0,-7.93e-4 -0.002,-0.0024 -0.0043,-0.0034 -0.0024,-0.0011 -0.0091,-0.0077 -0.01505,-0.01471 -0.0093,-0.01106 -0.02971,-0.0339 -0.04606,-0.05149 -0.0027,-0.0029 -0.0056,-0.0081 -0.0063,-0.01148 -0.0015,-0.007 -0.01811,-0.03994 -0.02374,-0.04719 -0.01538,-0.01982 -0.04663,-0.04446 -0.06465,-0.05098 -0.0074,-0.0027 -0.01681,-0.02111 -0.01899,-0.03715 -8.2e-4,-0.006 -0.0024,-0.01714 -0.0036,-0.02471 -0.0024,-0.01542 -0.0068,-0.04852 -0.0099,-0.07368 -0.0011,-0.0092 -0.0025,-0.01815 -0.003,-0.01992 -9.26e-4,-0.003 -2.9e-5,-0.006 0.0063,-0.02066 0.0015,-0.0034 0.0027,-0.007 0.0027,-0.008 0,-0.0019 0.0056,-0.01389 0.01526,-0.03311 0.0045,-0.0088 0.0069,-0.01095 0.02188,-0.01924 0.02597,-0.01429 0.04334,-0.02978 0.05802,-0.05172 0.0028,-0.0041 0.0074,-0.01106 0.01032,-0.01537 0.01216,-0.01807 0.02458,-0.04993 0.03026,-0.0776 0.0049,-0.02376 0.0058,-0.02884 0.007,-0.03733 0.0012,-0.009 0.0018,-0.0097 0.02055,-0.02665 0.01111,-0.01003 0.0172,-0.01204 0.04892,-0.01625 0.04318,-0.0057 0.07426,-0.01296 0.09922,-0.02318 0.027,-0.01103 0.02165,-0.0097 0.09234,-0.0231 0.03349,-0.0063 0.07395,-0.01609 0.08608,-0.02072 0.0036,-0.0013 0.03275,-0.0021 0.08382,-0.0021 h 0.07829 l 0.0069,0.0094 c 0.02288,0.03117 0.06569,0.05132 0.128768,0.0606 0.01779,0.0026 0.03599,0.0085 0.03953,0.01273 5.29e-4,5.29e-4 0.0032,0.0024 0.0059,0.0037 0.01577,0.0081 0.0254,0.01624 0.02762,0.0232 0.01175,0.03689 0.02915,0.06351 0.05391,0.08249 0.01068,0.0082 0.0458,0.0259 0.0514,0.02593 0.0013,5e-6 0.0049,0.0042 0.008,0.0093 0.0056,0.0092 0.0084,0.01963 0.01253,0.04666 0.0011,0.0076 0.0028,0.01773 0.0037,0.0226 8.99e-4,0.0049 0.003,0.01725 0.0046,0.02751 0.0017,0.01027 0.004,0.02442 0.0053,0.03144 0.0028,0.0158 0.0028,0.0086 1.83e-4,0.08448 -0.0012,0.03512 -0.0032,0.06827 -0.0044,0.07368 -0.0034,0.01495 -0.01246,0.04666 -0.02031,0.07073 -0.0064,0.01982 -0.0077,0.02209 -0.01501,0.02723 -0.0044,0.0031 -0.01312,0.01037 -0.01941,0.01622 -0.0063,0.0058 -0.01204,0.01061 -0.01276,0.01061 -7.14e-4,0 -0.005,0.0016 -0.0096,0.0037 -0.0045,0.0021 -0.01266,0.0056 -0.01807,0.008 -0.03636,0.01582 -0.0703,0.04794 -0.08633,0.08167 -0.0022,0.0046 -0.0078,0.01087 -0.01372,0.01521 -0.0055,0.004 -0.01418,0.01132 -0.01931,0.01622 -0.0051,0.0049 -0.01092,0.0089 -0.01287,0.0089 -0.002,0 -0.0044,7.94e-4 -0.0054,0.0016 -10e-4,0.0011 -0.01247,0.0041 -0.02544,0.0071 -0.01297,0.003 -0.0333,0.0079 -0.04519,0.01087 -0.01188,0.003 -0.02824,0.0065 -0.03635,0.0076 -0.01334,0.0019 -0.158908,0.0067 -0.177805,0.0058 -0.0043,-1.99e-4 -0.0388,-0.0013 -0.07662,-0.0027 z m 0.17977,-0.006 c 0.03836,-7.93e-4 0.07284,-0.0019 0.07662,-0.0029 0.0038,-7.94e-4 0.02191,-0.0052 0.04028,-0.0095 0.04671,-0.01095 0.04951,-0.01196 0.05557,-0.01995 0.0097,-0.01283 0.02929,-0.02959 0.04597,-0.03939 0.0061,-0.0036 0.01232,-0.0088 0.01373,-0.01159 0.0078,-0.01524 0.02633,-0.03629 0.04289,-0.04862 0.01198,-0.0089 0.04375,-0.02614 0.04822,-0.02614 0.0016,0 0.0029,-7.93e-4 0.0029,-0.0019 0,-0.0011 0.0057,-0.0079 0.01268,-0.01542 0.01113,-0.01201 0.0306,-0.02705 0.04367,-0.03371 0.0023,-0.0013 0.0048,-0.0042 0.0055,-0.0066 6.88e-4,-0.0024 0.002,-0.0062 0.0029,-0.0084 9.26e-4,-0.0021 0.0032,-0.0092 0.005,-0.01572 0.0018,-0.0065 0.0041,-0.014 0.005,-0.01669 9.53e-4,-0.0027 0.0026,-0.0084 0.0036,-0.01278 10e-4,-0.0043 0.0029,-0.0114 0.004,-0.01572 0.0027,-0.01003 0.006,-0.138946 0.0038,-0.151585 -8.99e-4,-0.0052 -0.0026,-0.01482 -0.0038,-0.0213 -0.0012,-0.0065 -0.0035,-0.02019 -0.0051,-0.03045 -0.0016,-0.01027 -0.0038,-0.0231 -0.0048,-0.02849 -10e-4,-0.0054 -0.0029,-0.01733 -0.0043,-0.02653 -0.0013,-0.0092 -0.0036,-0.01786 -0.005,-0.01929 -0.0014,-0.0013 -0.0025,-0.0034 -0.0025,-0.0044 0,-0.0011 -0.0014,-0.0019 -0.0031,-0.0019 -0.01277,0 -0.05744,-0.02146 -0.07125,-0.03422 -0.0078,-0.0072 -0.02148,-0.02619 -0.02773,-0.03848 -0.0049,-0.0097 -0.01581,-0.04138 -0.01581,-0.04604 0,-0.0043 -0.0068,-0.01 -0.02456,-0.02066 -0.0133,-0.008 -0.01784,-0.0097 -0.02947,-0.01082 -0.06563,-0.0066 -0.111048,-0.02238 -0.136037,-0.04738 l -0.0087,-0.0087 -0.07892,7.2e-5 c -0.0771,6.9e-5 -0.07942,1.85e-4 -0.100535,0.005 -0.02999,0.0069 -0.0693,0.01349 -0.10413,0.01757 -0.01711,0.0021 -0.03277,0.0049 -0.03733,0.007 -0.02218,0.01 -0.0757,0.02093 -0.124758,0.02545 -0.02459,0.0024 -0.0271,0.0029 -0.03438,0.0084 -0.01745,0.01318 -0.02055,0.01757 -0.02254,0.03206 -0.0043,0.03113 -0.0064,0.04353 -0.0092,0.05374 -0.0016,0.006 -0.0038,0.01434 -0.0049,0.01865 -0.0023,0.0095 -0.0054,0.0173 -0.0134,0.03438 -0.02111,0.04511 -0.04557,0.06969 -0.086,0.08638 -0.01497,0.0062 -0.01551,0.0066 -0.02051,0.01746 -0.01232,0.02664 -0.01577,0.03504 -0.01666,0.04057 -9.26e-4,0.0057 0.0011,0.02679 0.0053,0.05501 0.0011,0.0076 0.0033,0.0226 0.0048,0.0334 0.0081,0.05754 0.0075,0.05584 0.02432,0.06166 0.02172,0.0075 0.04961,0.02738 0.06422,0.04577 0.004,0.0051 0.01657,0.02527 0.01658,0.0267 6e-6,7.94e-4 0.0013,0.004 0.003,0.0072 0.0035,0.0067 0.01269,0.03282 0.01269,0.03605 0,0.0013 0.0039,0.0065 0.0086,0.01164 0.01985,0.02162 0.02517,0.0276 0.0331,0.03721 0.0059,0.0071 0.01068,0.0108 0.01621,0.01246 0.01234,0.0037 0.03278,0.01508 0.04535,0.02522 0.0138,0.01111 0.03009,0.03083 0.03533,0.04274 0.0023,0.0053 0.0051,0.0087 0.0071,0.0087 0.0018,10e-6 0.0038,7.94e-4 0.0044,0.0019 6.08e-4,0.0011 0.01105,0.0051 0.0232,0.0091 0.01215,0.004 0.02332,0.0083 0.02484,0.0095 0.0028,0.0021 0.150962,0.0073 0.173089,0.0059 0.0059,-2.64e-4 0.04219,-0.0013 0.08055,-0.0019 z"
       id="path45" /><path
       style="fill:#ffffff;stroke-width:0.0019647"
       d="m 13.510916,14.683554 c -0.05084,-0.0021 -0.0671,-0.0041 -0.08388,-0.01061 -0.0068,-0.0026 -0.02103,-0.008 -0.0316,-0.01199 -0.0158,-0.0059 -0.02016,-0.0084 -0.02456,-0.01437 -0.01246,-0.01677 -0.03707,-0.03916 -0.05344,-0.04864 -0.01887,-0.01093 -0.02306,-0.01479 -0.05663,-0.05244 -0.02049,-0.02297 -0.02515,-0.02944 -0.03072,-0.04264 -0.0036,-0.0085 -0.0098,-0.02127 -0.01366,-0.02825 -0.01189,-0.02127 -0.0405,-0.04727 -0.06638,-0.06035 -0.02031,-0.01027 -0.02312,-0.02035 -0.03793,-0.136379 l -0.0033,-0.02553 0.0097,-0.024 c 0.01504,-0.03707 0.01682,-0.03947 0.03969,-0.05353 0.02491,-0.01529 0.0416,-0.03086 0.05651,-0.05269 0.02206,-0.03228 0.03404,-0.06278 0.04234,-0.107849 0.0033,-0.01767 0.0061,-0.02781 0.0091,-0.03193 0.006,-0.0084 0.0087,-0.0076 0.0041,0.0013 -0.0021,0.004 -0.0057,0.01966 -0.008,0.03469 -0.0083,0.05358 -0.02466,0.09597 -0.04887,0.12699 -0.01474,0.01889 -0.02866,0.02962 -0.05594,0.04314 l -0.02181,0.0108 -0.01027,0.0226 c -0.0088,0.01947 -0.01028,0.02432 -0.01035,0.03508 -1.03e-4,0.01556 0.01494,0.122521 0.01839,0.130773 0.0032,0.0078 0.0055,0.0095 0.02004,0.01529 0.01468,0.0059 0.03596,0.01992 0.04836,0.0319 0.01726,0.01669 0.03338,0.04544 0.04188,0.07469 0.0023,0.0079 0.0062,0.01397 0.01622,0.02495 0.0072,0.008 0.01834,0.02043 0.02463,0.02763 0.0084,0.0096 0.01387,0.014 0.02063,0.01651 0.03009,0.01114 0.06153,0.03685 0.07613,0.06224 0.0043,0.0074 0.0095,0.01381 0.01245,0.01516 0.01611,0.0074 0.05392,0.01945 0.06402,0.02043 0.03907,0.0038 0.139617,0.0052 0.224182,0.0031 l 0.09017,-0.0021 0.04028,-0.0096 c 0.02215,-0.0053 0.04293,-0.01058 0.04617,-0.01183 0.0032,-0.0013 0.01385,-0.01003 0.02358,-0.0195 0.0097,-0.0095 0.02442,-0.02175 0.03266,-0.02727 0.01066,-0.0071 0.01652,-0.01267 0.02035,-0.01921 0.01315,-0.02244 0.04308,-0.04795 0.0732,-0.06239 0.0107,-0.0051 0.0179,-0.01066 0.03036,-0.02334 0.009,-0.0091 0.02316,-0.02119 0.0315,-0.02681 0.0083,-0.0056 0.01599,-0.01175 0.01699,-0.01363 10e-4,-0.0019 0.006,-0.01754 0.01108,-0.0348 0.01082,-0.03671 0.01187,-0.04626 0.0137,-0.124814 l 0.0013,-0.05403 -0.01096,-0.06582 c -0.01205,-0.07232 -0.01276,-0.07445 -0.02579,-0.07709 -0.0042,-7.94e-4 -0.01872,-0.007 -0.0322,-0.01357 -0.0199,-0.0097 -0.02656,-0.01413 -0.03537,-0.02331 -0.01706,-0.01778 -0.03095,-0.04409 -0.03823,-0.07233 -0.0034,-0.01318 -0.0094,-0.01916 -0.03048,-0.0305 -0.01184,-0.0064 -0.01741,-0.008 -0.03508,-0.01029 -0.06149,-0.0079 -0.09914,-0.02148 -0.125713,-0.04524 l -0.01237,-0.01106 -0.07899,0.0013 -0.07899,0.0013 -0.03536,0.0069 c -0.01945,0.0038 -0.05381,0.0095 -0.07635,0.0127 -0.02841,0.004 -0.04619,0.0077 -0.05796,0.01175 -0.02047,0.0071 -0.06464,0.01617 -0.09949,0.02037 -0.01405,0.0016 -0.02972,0.0036 -0.03482,0.0042 -0.0057,7.94e-4 -0.01229,0.0033 -0.01717,0.0069 -0.0093,0.0067 -0.01199,0.0074 -0.0068,0.0016 0.0074,-0.0082 0.01811,-0.01154 0.05611,-0.01746 0.0431,-0.0067 0.06538,-0.01222 0.09549,-0.0236 0.01526,-0.0058 0.03703,-0.01122 0.07856,-0.01968 0.03159,-0.0065 0.0674,-0.01445 0.07957,-0.01775 l 0.02212,-0.006 0.07663,-0.0011 0.07663,-0.0011 0.0094,0.01159 c 0.01714,0.02106 0.04408,0.03825 0.07504,0.04788 0.0076,0.0024 0.02859,0.0072 0.04673,0.01082 0.02913,0.0058 0.03472,0.0075 0.04792,0.01508 0.02227,0.0127 0.02896,0.01971 0.03561,0.03727 0.01722,0.04546 0.04346,0.07228 0.09088,0.09292 0.02158,0.0094 0.02289,0.01286 0.03705,0.09839 l 0.0098,0.05894 -0.0018,0.05305 c -0.0027,0.07741 -0.0039,0.08654 -0.01635,0.128725 -0.0059,0.01998 -0.01208,0.03946 -0.0137,0.04331 -0.0019,0.0044 -0.0097,0.01278 -0.02121,0.0226 -0.01421,0.01214 -0.02275,0.01762 -0.03858,0.02477 -0.02525,0.0114 -0.0377,0.01889 -0.0529,0.03182 -0.01563,0.01331 -0.02987,0.03026 -0.04025,0.04796 -0.0061,0.01035 -0.01251,0.01781 -0.02292,0.02657 -0.02665,0.02241 -0.02339,0.02117 -0.103373,0.03968 -0.02334,0.0054 -0.03874,0.0077 -0.05992,0.009 -0.04328,0.0026 -0.188028,0.0037 -0.236769,0.0019 z"
       id="path46" /><path
       style="fill:#ffffff;stroke-width:0.0019647"
       d="m 13.578698,14.673778 c -0.01567,-7.94e-4 -0.04975,-0.0016 -0.07575,-0.0016 l -0.04726,-2.46e-4 -0.02036,-0.0069 c -0.0296,-0.01 -0.0312,-0.01085 -0.03378,-0.01868 -0.01181,-0.03582 -0.04758,-0.06739 -0.09104,-0.08033 -0.01225,-0.0037 -0.01483,-0.0053 -0.02358,-0.01543 -0.0054,-0.0062 -0.01402,-0.01569 -0.01914,-0.02103 -0.0062,-0.0065 -0.0097,-0.01204 -0.0105,-0.01672 -0.0016,-0.0092 -0.0085,-0.03243 -0.01257,-0.04237 -0.0081,-0.01955 -0.0161,-0.03237 -0.02751,-0.04398 -0.01785,-0.01818 -0.02676,-0.02439 -0.04551,-0.03176 -0.03544,-0.01392 -0.03394,-0.01249 -0.0369,-0.03512 -0.0014,-0.01035 -0.0032,-0.02323 -0.0041,-0.02864 -0.0016,-0.0093 -0.0059,-0.04025 -0.0094,-0.06733 -0.0011,-0.0087 -8.99e-4,-0.01389 8.21e-4,-0.01767 0.01088,-0.02392 0.01453,-0.03235 0.01453,-0.03353 0,-7.94e-4 0.0086,-0.0041 0.01916,-0.0075 0.02871,-0.0091 0.05411,-0.02609 0.07072,-0.04719 0.0067,-0.0085 0.02604,-0.04895 0.02604,-0.05441 0,-0.0016 7.93e-4,-0.0035 0.0017,-0.0041 9.52e-4,-5.29e-4 0.0022,-0.0035 0.0028,-0.0065 5.82e-4,-0.003 0.0027,-0.01294 0.0048,-0.02212 0.0021,-0.0092 0.0049,-0.02334 0.0062,-0.03144 0.0013,-0.0081 0.0032,-0.01953 0.0042,-0.02537 0.001,-0.0058 0.0018,-0.01474 0.0018,-0.01971 0,-0.0093 0.0014,-0.01109 0.0195,-0.02508 0.0017,-0.0013 0.0078,-0.0024 0.01353,-0.0024 0.0057,-3.4e-5 0.01634,-7.93e-4 0.02358,-0.0019 0.0072,-0.0011 0.02553,-0.0033 0.04066,-0.005 0.03032,-0.0034 0.06251,-0.0094 0.07466,-0.01376 0.0043,-0.0016 0.02643,-0.0046 0.04912,-0.0069 0.02269,-0.0021 0.04612,-0.0048 0.05207,-0.0058 0.0059,-0.0011 0.024,-0.004 0.04013,-0.0068 0.02801,-0.0048 0.03274,-0.005 0.104909,-0.005 h 0.07558 l 0.0085,0.007 c 0.01833,0.01503 0.0493,0.02572 0.09057,0.03127 0.0127,0.0016 0.02789,0.004 0.03374,0.005 0.0059,0.0011 0.01411,0.0019 0.01835,0.0019 0.0057,0 0.01174,0.0024 0.02308,0.0092 0.01391,0.0083 0.01545,0.0099 0.01626,0.01622 0.0014,0.01087 0.01017,0.04135 0.01486,0.05159 0.0023,0.0051 0.0042,0.0098 0.0042,0.01045 0,7.94e-4 0.0028,0.0054 0.0063,0.01042 0.01066,0.01564 0.02686,0.02958 0.04383,0.03773 0.01666,0.008 0.03782,0.01564 0.04365,0.01574 0.0019,3.5e-5 0.0059,0.0021 0.0089,0.0048 0.0043,0.0038 0.0058,0.0075 0.0075,0.0181 0.0058,0.03633 0.0076,0.04771 0.0096,0.05855 0.0092,0.04987 0.0093,0.05059 0.0061,0.150299 -0.0013,0.04173 -0.002,0.04768 -0.0065,0.06189 -0.0028,0.0087 -0.0065,0.02064 -0.0083,0.02664 -0.0029,0.0098 -0.004,0.01119 -0.01053,0.01349 -0.0081,0.0029 -0.03505,0.01881 -0.03985,0.02357 -0.0017,0.0016 -0.0061,0.0057 -0.0098,0.009 -0.0077,0.0069 -0.02148,0.02336 -0.02148,0.02582 0,0.0028 -0.0098,0.01241 -0.01269,0.01241 -0.0015,0 -0.003,7.94e-4 -0.0034,0.0016 -3.71e-4,7.94e-4 -0.0046,0.0035 -0.0095,0.0059 -0.01611,0.0081 -0.0414,0.03156 -0.04943,0.0458 -0.0026,0.0046 -0.0064,0.0079 -0.01116,0.0096 -0.01377,0.0049 -0.03514,0.0182 -0.04569,0.02835 -0.01496,0.01437 -0.02272,0.02344 -0.02428,0.02836 -7.41e-4,0.0024 -0.0021,0.0042 -0.003,0.0042 -9.26e-4,0 -0.0022,0.0016 -0.0028,0.0034 -0.0014,0.0043 -0.0076,0.0062 -0.04731,0.01487 l -0.03144,0.0069 -0.07171,0.0013 c -0.03944,5.29e-4 -0.07525,0.0016 -0.07957,0.0019 -0.0043,2.64e-4 -0.02068,3.4e-5 -0.03635,-7.94e-4 z m 0.205982,-0.01199 c 0.03244,-0.0067 0.03288,-0.007 0.03882,-0.0204 0.0166,-0.03746 0.0493,-0.06452 0.0927,-0.07669 0.0067,-0.0019 0.01221,-0.0041 0.01221,-0.0049 0,-0.0026 0.02219,-0.02368 0.03041,-0.02896 0.0043,-0.0028 0.009,-0.0062 0.01046,-0.0076 0.0015,-0.0013 0.0039,-0.0026 0.0054,-0.0026 0.0015,0 0.0028,-0.0013 0.0028,-0.0027 0,-0.0041 0.0123,-0.02722 0.02019,-0.03797 0.01452,-0.01979 0.04174,-0.03784 0.071,-0.04711 l 0.01674,-0.0053 0.003,-0.01042 c 0.0085,-0.02905 0.0086,-0.03024 0.0097,-0.09694 5.56e-4,-0.03622 2e-4,-0.07114 -7.94e-4,-0.07761 -10e-4,-0.0065 -0.0032,-0.02016 -0.0049,-0.03042 -0.0017,-0.01027 -0.0039,-0.02397 -0.0049,-0.03045 -0.0011,-0.0073 -0.003,-0.01251 -0.005,-0.01376 -0.02354,-0.01429 -0.0446,-0.03207 -0.0527,-0.04451 -0.0019,-0.0029 -0.0058,-0.0058 -0.0087,-0.0065 -0.0097,-0.0024 -0.03133,-0.01659 -0.03968,-0.02606 -0.01673,-0.019 -0.02832,-0.05285 -0.0328,-0.0958 -9.79e-4,-0.0093 -0.0015,-0.01011 -0.01113,-0.01596 -0.0091,-0.0056 -0.01217,-0.0063 -0.03171,-0.0074 -0.06225,-0.0037 -0.110585,-0.01296 -0.129686,-0.02477 -0.0061,-0.0038 -0.0097,-0.0039 -0.08765,-0.0038 -0.04472,9.3e-5 -0.08661,7.94e-4 -0.09309,0.0019 -0.0216,0.0031 -0.05062,0.0059 -0.101183,0.0099 -0.02756,0.0021 -0.05762,0.0052 -0.0668,0.0068 -0.0283,0.0048 -0.04597,0.0066 -0.08973,0.0092 l -0.04217,0.0024 -0.0069,0.006 -0.0069,0.006 -0.0018,0.02455 c -0.0025,0.03543 -0.0036,0.04071 -0.01086,0.05599 -0.0075,0.01564 -0.01201,0.03588 -0.01373,0.06118 -0.0015,0.0213 -0.0034,0.02792 -0.01223,0.04189 -0.0094,0.01476 -0.0245,0.02855 -0.0387,0.03521 -0.02297,0.0108 -0.02576,0.01175 -0.04666,0.01627 -0.01161,0.0026 -0.02115,0.0055 -0.02118,0.0065 -3.7e-5,0.0011 -0.0025,0.0072 -0.0055,0.01355 -0.0058,0.01246 -0.0058,0.0118 -3.96e-4,0.04687 0.0011,0.0067 0.003,0.02037 0.0043,0.03029 0.002,0.01511 0.003,0.01831 0.0065,0.0199 0.01015,0.0046 0.03098,0.02106 0.04452,0.03515 0.0081,0.0084 0.01974,0.01831 0.02581,0.02191 0.01609,0.0096 0.02792,0.02257 0.03681,0.04054 0.0095,0.01921 0.01769,0.04823 0.02099,0.0745 6.61e-4,0.0053 0.0026,0.01106 0.0044,0.01283 0.0017,0.0019 0.0074,0.0082 0.01258,0.01421 0.0087,0.01016 0.01031,0.01117 0.02161,0.01331 0.01271,0.0024 0.02318,0.0052 0.02988,0.0079 0.0022,7.93e-4 0.0097,0.0039 0.01687,0.0068 0.0071,0.0029 0.01552,0.0072 0.01866,0.0096 0.0222,0.01672 0.03886,0.04407 0.0471,0.07729 2.91e-4,0.0013 0.0066,0.0047 0.01397,0.0078 l 0.01342,0.0056 0.06778,0.0011 c 0.03728,5.29e-4 0.108893,7.93e-4 0.15914,2.64e-4 0.08105,-5.29e-4 0.09343,-0.0011 0.109711,-0.0045 z"
       id="path47" /><path
       style="fill:#ffffff;stroke-width:0.0019647"
       d="m 13.919574,14.051677 c -0.03114,-0.02342 -0.07106,-0.03567 -0.139964,-0.04298 -0.06522,-0.0069 -0.269952,-0.0085 -0.358087,-0.0028 -0.05539,0.0036 -0.09145,0.01058 -0.114224,0.02212 l -0.01304,0.0066 10e-4,-0.02476 c 5.55e-4,-0.01363 0.0011,-0.0249 0.0012,-0.02508 1.27e-4,-1.74e-4 0.06124,-0.0019 0.135796,-0.0034 0.156279,-0.0036 0.319592,-0.0041 0.379187,-0.0011 0.02269,0.0011 0.0585,0.0027 0.07957,0.0035 l 0.03831,0.0013 0.0015,0.01865 c 8.21e-4,0.01027 0.0013,0.02723 9.79e-4,0.03769 l -5.02e-4,0.01902 z"
       id="path48" /><path
       style="fill:#ffffff;stroke-width:0.0019647"
       d="m 13.304623,13.974363 c 0.0054,-7.94e-4 0.0268,-0.0027 0.04755,-0.0039 0.02075,-0.0013 0.04911,-0.0039 0.06302,-0.006 0.01391,-0.0021 0.046,-0.0056 0.07132,-0.0079 0.02531,-0.0024 0.05885,-0.0056 0.07451,-0.0074 0.02123,-0.0024 0.05128,-0.0034 0.117901,-0.0039 l 0.08941,-7.93e-4 0.01275,0.0057 c 0.02096,0.0094 0.06407,0.0177 0.109022,0.02093 0.02377,0.0016 0.03677,0.0032 0.03583,0.0042 -0.0011,0.0011 -0.07896,-0.0045 -0.102375,-0.0073 -0.0096,-0.0011 -0.02461,-0.0044 -0.0334,-0.0072 -0.01553,-0.005 -0.01766,-0.0052 -0.07688,-0.0059 -0.08297,-0.0011 -0.182528,0.0034 -0.277023,0.01233 -0.01621,0.0016 -0.04671,0.0037 -0.06778,0.0048 -0.07337,0.0039 -0.07455,0.0039 -0.06385,0.0021 z"
       id="path49" /><path
       style="fill:#ffffff;stroke-width:0.0019647"
       d="m 13.701983,13.921801 c 0.01216,-2.65e-4 0.03205,-2.65e-4 0.04421,0 0.01216,2.64e-4 0.0022,5.29e-4 -0.0221,5.29e-4 -0.02431,0 -0.03426,-2.65e-4 -0.0221,-5.29e-4 z"
       id="path50" /><path
       style="fill:#ffffff;stroke-width:0.0019647"
       d="m 13.926287,13.96569 c -7.41e-4,-7.94e-4 -0.02797,-0.0043 -0.04772,-0.0062 -0.0045,-5.29e-4 -0.01695,-0.0026 -0.02776,-0.0049 -0.01081,-0.0021 -0.02163,-0.0042 -0.02407,-0.0044 -0.0024,-2.07e-4 -0.0044,-7.94e-4 -0.0044,-0.0016 -10e-7,-5.29e-4 -0.0062,-0.0036 -0.0138,-0.0066 -0.0076,-0.003 -0.01983,-0.01013 -0.02736,-0.01603 l -0.01357,-0.01061 h -0.07664 c -0.0615,0 -0.07948,5.29e-4 -0.09101,0.003 -0.02248,0.0047 -0.07393,0.01249 -0.111625,0.01683 -0.02337,0.0027 -0.04029,0.0058 -0.05283,0.0097 -0.01014,0.0032 -0.02004,0.0058 -0.02199,0.0058 -0.002,0 -0.0041,7.94e-4 -0.0047,0.0019 -6.35e-4,0.0011 -0.0025,0.0013 -0.004,7.94e-4 -0.0016,-5.29e-4 -0.0044,-5.29e-4 -0.0063,2.65e-4 -0.0019,7.93e-4 -0.0061,0.0016 -0.0093,0.0019 -0.0032,2.64e-4 -0.01871,0.0019 -0.03438,0.0036 -0.04195,0.0045 -0.05811,0.0057 -0.05677,0.0044 6.61e-4,-5.3e-4 0.01568,-0.0029 0.0334,-0.0051 0.05239,-0.0063 0.08323,-0.01249 0.112391,-0.02267 0.0079,-0.0028 0.03065,-0.0071 0.05572,-0.01069 0.02329,-0.0033 0.05749,-0.0091 0.07601,-0.01297 l 0.03367,-0.007 0.07901,-0.0011 0.07901,-0.0011 0.0124,0.01159 c 0.02547,0.02379 0.06058,0.03641 0.124911,0.04486 0.01209,0.0016 0.02352,0.0038 0.02541,0.0049 0.0029,0.0016 0.003,0.0021 3.17e-4,0.0021 -0.0017,3.2e-5 -0.0035,-2.65e-4 -0.0039,-7.94e-4 z"
       id="path51" /><path
       style="fill:#ffffff;stroke-width:0.0019647"
       d="m 13.463764,13.939885 c 0.0011,-5.29e-4 0.01965,-0.003 0.04126,-0.0058 0.02161,-0.0028 0.05477,-0.0077 0.07368,-0.01095 0.033,-0.0057 0.03747,-0.006 0.111005,-0.0071 0.0698,-0.0011 0.07686,-7.93e-4 0.07932,0.0021 0.0025,0.003 -0.003,0.0033 -0.07576,0.0033 -0.07758,0 -0.07886,6.7e-5 -0.113702,0.0058 -0.04665,0.0077 -0.12497,0.01633 -0.115794,0.01278 z"
       id="path52" /><path
       style="fill:#ffffff;stroke-width:0.0019647"
       d="m 14.087681,14.202254 c -2.91e-4,-0.0076 -0.0026,-0.0099 -0.01616,-0.01558 -0.02673,-0.01127 -0.05141,-0.03208 -0.06744,-0.05687 -0.005,-0.0077 -0.0099,-0.014 -0.01081,-0.014 -0.0041,0 -0.02122,-0.01704 -0.02781,-0.02771 -0.01047,-0.01696 -0.01935,-0.0532 -0.02206,-0.08998 -0.0015,-0.02088 0.0022,-0.01514 0.0058,0.0089 0.0053,0.03563 0.01416,0.06139 0.02725,0.07923 0.0072,0.0098 0.02489,0.02334 0.03849,0.02943 0.0045,0.0021 0.01419,0.0099 0.02155,0.01746 0.0074,0.0076 0.02055,0.01884 0.02931,0.02498 0.0088,0.0061 0.01674,0.01267 0.01774,0.01455 0.0025,0.0047 0.0066,0.02895 0.0053,0.03202 -5.55e-4,0.0013 -0.0011,2.65e-4 -0.0012,-0.0024 z"
       id="path53" /><path
       style="fill:#ffffff;stroke-width:0.0019647"
       d="m 14.006763,14.387941 c 0.03779,-0.04709 0.04402,-0.0835 0.0247,-0.144344 -0.0026,-0.0081 -0.0044,-0.01495 -0.004,-0.01532 3.71e-4,-2.65e-4 0.01028,0.0011 0.02202,0.0032 0.01174,0.0021 0.02466,0.0044 0.02871,0.0051 l 0.0074,0.0013 v 0.07658 0.07658 l -0.0044,0.0016 c -0.0024,7.94e-4 -0.01282,0.0024 -0.02308,0.003 -0.01998,0.0016 -0.05715,0.0065 -0.06212,0.0084 -0.0017,5.3e-4 0.0032,-0.0066 0.01079,-0.01606 z"
       id="path54" /><path
       style="fill:#ffffff;stroke-width:0.0019647"
       d="m 13.449007,14.652662 c -7.8e-5,-0.0055 -0.006,-0.05686 -0.0069,-0.05962 -8.73e-4,-0.0027 0.0028,-0.0016 0.0182,0.0051 0.0825,0.03631 0.174373,0.03656 0.264654,7.94e-4 0.01965,-0.0078 0.06435,-0.02944 0.06975,-0.03377 0.0023,-0.0019 0.0025,-0.0016 0.0012,0.0016 -0.0067,0.0164 -0.01113,0.03329 -0.01386,0.05237 -0.0017,0.01225 -0.0036,0.02516 -0.0041,0.02868 l -9.53e-4,0.0064 h -0.163951 c -0.09018,0 -0.163973,-7.94e-4 -0.163985,-0.0016 z"
       id="path55" /><path
       style="fill:#ffffff;stroke-width:0.0019647"
       d="m 13.843049,14.534591 c 10e-4,-7.93e-4 0.0093,-0.0073 0.01844,-0.01413 0.01948,-0.01466 0.04564,-0.03624 0.06862,-0.05665 0.0094,-0.0083 0.01595,-0.01299 0.01531,-0.01087 -0.0017,0.0056 -0.0067,0.03733 -0.0081,0.05177 -7.14e-4,0.007 -0.0021,0.01421 -0.0031,0.01606 -0.0023,0.0042 -0.01444,0.0067 -0.04702,0.0096 -0.01351,0.0013 -0.0281,0.003 -0.03242,0.004 -0.01007,0.0024 -0.0141,0.0024 -0.01169,2.2e-4 z"
       id="path56" /><path
       style="fill:#ffffff;stroke-width:0.0019647"
       d="m 13.51681,14.67187 c -0.04368,-7.93e-4 -0.06437,-0.0019 -0.06778,-0.0035 -0.0039,-0.0019 0.01689,-0.0021 0.102165,-0.0013 0.121775,0.0013 0.221369,-0.0013 0.24264,-0.006 0.02211,-0.0049 0.02414,-0.0062 0.0308,-0.01953 0.0094,-0.01884 0.02234,-0.03565 0.03559,-0.04639 0.01458,-0.0118 0.03723,-0.02389 0.05345,-0.02855 0.01,-0.0029 0.01417,-0.0057 0.02751,-0.01839 0.0086,-0.0083 0.02034,-0.01802 0.02599,-0.02167 0.0084,-0.0055 0.01133,-0.0089 0.01624,-0.01939 0.01696,-0.03625 0.04272,-0.05821 0.08571,-0.07309 l 0.01791,-0.0062 0.0055,-0.02196 c 0.0053,-0.02135 0.0055,-0.02379 0.0064,-0.08875 l 9.26e-4,-0.0668 -0.0061,-0.03765 c -0.0034,-0.02072 -0.0067,-0.03905 -0.0073,-0.04075 -6.61e-4,-0.0016 -0.0084,-0.0081 -0.01719,-0.01431 -0.0088,-0.0062 -0.02236,-0.0177 -0.03012,-0.02564 -0.0099,-0.01013 -0.01826,-0.01648 -0.0281,-0.02143 -0.03366,-0.01683 -0.05124,-0.04767 -0.05975,-0.10474 -0.0016,-0.0109 -0.0035,-0.02069 -0.0042,-0.0218 -6.61e-4,-0.0011 -0.0056,-0.0042 -0.01088,-0.0069 -0.0078,-0.0039 -0.01448,-0.0053 -0.03473,-0.0069 -0.05834,-0.0046 -0.100514,-0.01249 -0.120347,-0.02254 l -0.0097,-0.0049 -0.08504,3.7e-5 c -0.04677,2.1e-5 -0.09079,7.93e-4 -0.09781,0.0019 -0.007,0.0011 -0.04283,0.0045 -0.07957,0.0078 -0.03674,0.0033 -0.07939,0.0077 -0.09478,0.0099 -0.01539,0.0021 -0.04849,0.0053 -0.07355,0.007 -0.02598,0.0016 -0.0467,0.0039 -0.0482,0.0052 -0.0015,0.0013 -0.0031,0.0016 -0.0037,0.0011 -0.0035,-0.0035 0.01098,-0.0072 0.03986,-0.01003 0.04356,-0.0043 0.08426,-0.01032 0.107708,-0.01587 0.02522,-0.006 0.0266,-0.0062 0.06975,-0.01077 0.01999,-0.0021 0.05265,-0.0066 0.07257,-0.0098 0.036,-0.006 0.03669,-0.006 0.112688,-0.006 h 0.07646 l 0.0074,0.0058 c 0.02192,0.01736 0.05344,0.02686 0.117964,0.03552 0.02572,0.0035 0.03465,0.0055 0.04323,0.0098 0.01796,0.009 0.01897,0.0104 0.02539,0.03532 0.01043,0.04052 0.0185,0.05594 0.03941,0.07529 0.01312,0.01214 0.03515,0.02387 0.05799,0.03086 0.0076,0.0024 0.01503,0.0049 0.0166,0.0057 0.0074,0.0038 0.0098,0.01199 0.01888,0.06599 l 0.0093,0.05501 -2.91e-4,0.04912 c -4.77e-4,0.07754 -0.0027,0.103812 -0.01073,0.130008 -0.0037,0.01206 -0.0073,0.02286 -0.008,0.02397 -6.88e-4,0.0011 -0.0092,0.0062 -0.01898,0.01135 -0.02097,0.01106 -0.03947,0.0258 -0.05012,0.03992 -0.01131,0.015 -0.02068,0.02561 -0.02262,0.02561 -0.0037,0 -0.03044,0.01857 -0.04066,0.02819 -0.0059,0.0056 -0.0142,0.01476 -0.01841,0.02045 -0.0059,0.008 -0.01086,0.01193 -0.02184,0.01741 -0.02602,0.01302 -0.05284,0.03547 -0.0609,0.05096 -0.0062,0.01196 -0.01088,0.01429 -0.04578,0.02273 l -0.03324,0.008 -0.06287,0.0016 c -0.06768,0.0016 -0.09519,0.0016 -0.192541,3.2e-5 z"
       id="path57" /><path
       style="fill:#ffffff;stroke-width:0.0019647"
       d="m 13.515828,14.671968 c -0.03648,-7.93e-4 -0.06379,-0.0021 -0.06651,-0.0032 -0.0033,-0.0016 0.04037,-0.0021 0.151282,-0.0021 0.158378,-3.2e-5 0.174069,-5.29e-4 0.201147,-0.0077 0.01402,-0.0037 0.01741,-0.0065 0.02451,-0.02053 0.01737,-0.03434 0.04583,-0.0579 0.08673,-0.07181 0.01173,-0.004 0.01631,-0.007 0.02895,-0.01902 0.0083,-0.0079 0.01957,-0.01738 0.02512,-0.02117 0.0079,-0.0054 0.01146,-0.0097 0.01639,-0.01966 0.01831,-0.0372 0.0425,-0.05773 0.08568,-0.07269 l 0.01791,-0.0062 0.0055,-0.02196 c 0.0053,-0.02138 0.0055,-0.02371 0.0063,-0.08875 l 8.73e-4,-0.0668 -0.0061,-0.03778 c -0.0034,-0.02077 -0.0066,-0.03911 -0.0073,-0.04075 -6.35e-4,-0.0016 -0.0083,-0.008 -0.01715,-0.01418 -0.0088,-0.0062 -0.0222,-0.01752 -0.02976,-0.02522 -0.0093,-0.0094 -0.0185,-0.01651 -0.02835,-0.02167 -0.03449,-0.01807 -0.05134,-0.0477 -0.05993,-0.105373 -0.0032,-0.02162 -0.0036,-0.02217 -0.01729,-0.02929 -0.0052,-0.0027 -0.0145,-0.0044 -0.03242,-0.0058 -0.05858,-0.0046 -0.09625,-0.01151 -0.118476,-0.02175 l -0.01284,-0.0059 -0.09031,7.94e-4 c -0.06746,5.29e-4 -0.09752,0.0016 -0.118801,0.0039 -0.01567,0.0019 -0.0489,0.0051 -0.07385,0.0073 -0.02495,0.0021 -0.05788,0.0058 -0.07317,0.0079 -0.01529,0.0021 -0.04831,0.0053 -0.07337,0.0069 -0.02598,0.0016 -0.0467,0.0039 -0.0482,0.0052 -0.0015,0.0013 -0.0031,0.0016 -0.0037,0.0011 -0.0027,-0.0027 0.0093,-0.0071 0.02281,-0.0083 0.03445,-0.003 0.09491,-0.01143 0.115883,-0.01603 0.03222,-0.0071 0.03724,-0.0079 0.07925,-0.01249 0.02073,-0.0024 0.05354,-0.0067 0.07293,-0.0099 0.03474,-0.0057 0.03632,-0.0058 0.111705,-0.0058 h 0.07646 l 0.0074,0.0059 c 0.02056,0.01627 0.05241,0.02609 0.111995,0.03449 0.03077,0.0043 0.04044,0.0065 0.04912,0.0108 0.01794,0.0089 0.01897,0.01037 0.02539,0.03529 0.01036,0.04023 0.01854,0.05598 0.03889,0.07481 0.01423,0.01318 0.02921,0.02127 0.05572,0.03015 0.01292,0.0043 0.02195,0.0085 0.02447,0.01146 0.0031,0.0036 0.0058,0.0154 0.01254,0.05461 0.01091,0.06375 0.01164,0.07492 0.0096,0.146269 -0.0018,0.06474 -0.0026,0.07146 -0.01194,0.100182 l -0.0064,0.01963 -0.01817,0.0098 c -0.02266,0.01228 -0.03766,0.0241 -0.04983,0.03931 -0.01609,0.02011 -0.02179,0.02652 -0.02357,0.02652 -0.0036,0 -0.02872,0.01746 -0.03984,0.02762 -0.0064,0.0058 -0.01501,0.01524 -0.01923,0.02096 -0.006,0.0081 -0.01082,0.01196 -0.02185,0.01749 -0.02602,0.01302 -0.05284,0.03547 -0.0609,0.05096 -0.0069,0.01326 -0.01345,0.01593 -0.06654,0.02719 -0.02134,0.0045 -0.02629,0.0048 -0.114644,0.0056 -0.05079,5.29e-4 -0.120191,2.65e-4 -0.154229,-2.64e-4 z"
       id="path58" /><path
       style="fill:#ffffff;stroke-width:0.0019647"
       d="m 13.804172,14.653643 c 0.0011,-0.0013 0.0026,-0.0055 0.0034,-0.0092 0.0044,-0.02045 0.02312,-0.05056 0.03919,-0.06296 0.01433,-0.01106 0.04005,-0.02238 0.06221,-0.02743 0.01545,-0.0035 0.01991,-0.0054 0.02456,-0.01026 0.0031,-0.0033 0.01105,-0.01027 0.01761,-0.01551 0.0094,-0.0075 0.01246,-0.01135 0.0144,-0.01799 0.0098,-0.03364 0.0321,-0.06188 0.05913,-0.07483 0.01512,-0.0072 0.04619,-0.01712 0.05386,-0.01712 0.0023,0 0.0055,-0.0011 0.0069,-0.0024 0.0022,-0.0021 0.0024,-0.0016 0.0014,0.0024 -6.62e-4,0.0027 -0.0012,0.0055 -0.0012,0.0062 -1.5e-5,7.93e-4 -0.006,0.0033 -0.01329,0.0057 -0.04266,0.01397 -0.0715,0.03707 -0.08877,0.07114 -0.0075,0.01468 -0.01013,0.01804 -0.01926,0.0241 -0.0058,0.0039 -0.0174,0.01349 -0.0257,0.02138 -0.01288,0.01225 -0.0171,0.015 -0.02884,0.01878 -0.03923,0.0127 -0.06618,0.03504 -0.08507,0.07048 -0.0053,0.0099 -0.01,0.01617 -0.01322,0.01765 -0.0068,0.0031 -0.0099,0.003 -0.0073,-1.59e-4 z"
       id="path59" /><path
       style="fill:#ffffff;stroke-width:0.0019647"
       d="m 13.426098,14.65377 c -0.0023,-0.0011 -0.0048,-0.0044 -0.0055,-0.0072 -0.0029,-0.01164 -0.01188,-0.03148 -0.0197,-0.04348 -0.01946,-0.02987 -0.04001,-0.0418 -0.09511,-0.0552 -0.0068,-0.0016 -0.0111,-0.0047 -0.01965,-0.01392 -0.01395,-0.01506 -0.01356,-0.01429 -0.01701,-0.03404 -0.0065,-0.03715 -0.01933,-0.07072 -0.03326,-0.08694 -0.004,-0.0046 -0.01308,-0.01257 -0.02028,-0.01767 -0.0072,-0.0051 -0.02149,-0.01712 -0.03175,-0.02667 -0.01027,-0.0096 -0.02457,-0.0213 -0.03178,-0.02609 -0.01389,-0.0092 -0.01424,-0.0099 -0.01623,-0.02924 -6.09e-4,-0.0058 -3.97e-4,-0.0079 4.76e-4,-0.005 8.47e-4,0.0027 0.0036,0.0053 0.0063,0.0061 0.0069,0.0019 0.02495,0.01122 0.03531,0.01831 0.01395,0.0096 0.02515,0.02066 0.03794,0.03762 0.0065,0.0087 0.01596,0.02014 0.02098,0.02553 0.01507,0.01619 0.02214,0.02882 0.02957,0.0528 0.0017,0.0054 0.0081,0.04298 0.01073,0.06278 9.53e-4,0.0071 0.0031,0.01148 0.0083,0.0173 0.0094,0.01042 0.01046,0.01087 0.03829,0.01651 0.03154,0.0064 0.04587,0.01127 0.06015,0.0205 0.01051,0.0068 0.02378,0.02151 0.0293,0.03246 0.0031,0.0061 0.01422,0.04059 0.01424,0.04405 7e-6,0.0016 0.0013,0.0055 0.0028,0.0085 0.003,0.0058 0.0024,0.0063 -0.0042,0.0031 z"
       id="path60" /><path
       style="fill:#ffffff;stroke-width:0.0019647"
       d="m 13.305196,14.524611 c -0.0051,-7.93e-4 -0.0099,-0.0019 -0.01071,-0.0028 -0.0022,-0.0021 -0.0044,-0.02543 -0.0045,-0.0482 l -1e-4,-0.02035 0.01186,0.01805 c 0.0065,0.0099 0.01991,0.02638 0.02976,0.03656 l 0.0179,0.01849 -0.01748,-2.62e-4 c -0.0096,-1.45e-4 -0.02164,-7.94e-4 -0.02673,-0.0016 z"
       id="path62" /><path
       style="fill:#ffffff;stroke-width:0.0019647"
       d="m 13.252558,14.312992 c 0,-0.0036 -0.01671,-0.01881 -0.02554,-0.02323 -0.015,-0.0075 -0.03921,-0.01455 -0.0636,-0.0185 -0.01392,-0.0021 -0.02401,-0.0048 -0.02502,-0.0064 -0.0028,-0.0044 -0.0021,-0.01542 9.26e-4,-0.01542 0.01771,0 0.101933,-0.01085 0.107565,-0.01386 0.0028,-0.0016 0.0034,0.0024 0.005,0.03802 10e-4,0.02183 0.0016,0.04007 0.0013,0.04052 -3.44e-4,5.29e-4 -6.09e-4,-3.7e-5 -6.09e-4,-0.0011 z"
       id="path63" /><path
       style="fill:#ffffff;stroke-width:0.0019647"
       d="m 13.137047,14.230082 c 4.5e-4,-0.0024 0.0071,-0.0049 0.02422,-0.0095 0.03353,-0.0088 0.05194,-0.01804 0.06792,-0.03394 0.0071,-0.0071 0.01527,-0.01733 0.01808,-0.02273 l 0.0051,-0.0098 9.2e-5,0.01291 c 8.2e-5,0.01162 -5.56e-4,0.01373 -0.0063,0.02122 -0.01373,0.01791 -0.04048,0.03108 -0.07846,0.0386 -0.009,0.0019 -0.0197,0.004 -0.02381,0.0048 -0.0064,0.0013 -0.0074,0.0011 -0.0069,-0.0016 z"
       id="path64" /><path
       style="fill:#ffffff;stroke-width:0.0019647"
       d="m 13.134676,14.209067 c 0,-0.0038 0.0056,-0.0088 0.0097,-0.0088 0.005,0 0.0393,-0.01773 0.04951,-0.02559 0.01885,-0.01452 0.02963,-0.02898 0.04469,-0.05988 0.01027,-0.02106 0.01117,-0.02323 0.01398,-0.0334 0.0058,-0.02106 0.0076,-0.02899 0.01063,-0.04715 0.0018,-0.0108 0.0041,-0.02392 0.0052,-0.02913 0.001,-0.0052 0.0019,-0.01156 0.0019,-0.01413 0,-0.0026 9.26e-4,-0.0052 0.0021,-0.0059 0.0058,-0.0036 -0.01059,0.09088 -0.02066,0.118938 -0.0017,0.0049 -0.008,0.01876 -0.01402,0.03085 -0.0094,0.01916 -0.01273,0.02376 -0.02533,0.03554 -0.01586,0.01482 -0.03269,0.02455 -0.05991,0.03467 -0.01272,0.0047 -0.01773,0.0058 -0.01773,0.004 z"
       id="path65" /><path
       style="fill:#ffffff;stroke-width:0.0019647"
       d="m 13.517793,14.677485 c -0.07127,-0.0027 -0.06374,-0.0034 0.03045,-0.0027 0.04971,2.65e-4 0.120436,-9.5e-5 0.157176,-0.0011 l 0.0668,-0.0016 0.03431,-0.0081 c 0.03651,-0.0086 0.03769,-0.0092 0.0467,-0.02389 0.01031,-0.01683 0.04126,-0.04185 0.06446,-0.05211 0.0074,-0.0033 0.01211,-0.0071 0.01624,-0.01307 0.0095,-0.01381 0.03402,-0.03568 0.05155,-0.04597 0.01264,-0.0074 0.01802,-0.01201 0.02368,-0.02016 0.01548,-0.02233 0.03334,-0.03734 0.06251,-0.05256 l 0.01456,-0.0076 0.0045,-0.01328 c 0.01119,-0.03322 0.0124,-0.04225 0.01429,-0.10656 9.79e-4,-0.0335 0.0015,-0.06669 0.0012,-0.07375 -6.88e-4,-0.01389 -0.01774,-0.119261 -0.02046,-0.126396 -0.0025,-0.0066 -0.0057,-0.0085 -0.02549,-0.01495 -0.04161,-0.0136 -0.06817,-0.03364 -0.08151,-0.06151 -0.0073,-0.01516 -0.01884,-0.05187 -0.01884,-0.05971 0,-0.0059 -0.0064,-0.01196 -0.02107,-0.0199 -0.0062,-0.0034 -0.0097,-0.0062 -0.0078,-0.0062 0.0038,-5.5e-5 0.02818,0.01495 0.0321,0.01974 0.0013,0.0016 0.0054,0.01254 0.0093,0.02445 0.01062,0.03286 0.02825,0.05988 0.04731,0.07253 0.01537,0.01021 0.04557,0.02421 0.05567,0.02582 0.0065,0.0011 0.0091,0.0026 0.01127,0.0069 0.0016,0.003 0.0078,0.03497 0.01387,0.07096 l 0.01102,0.06543 -0.0021,0.06884 -0.0021,0.06884 -0.0089,0.03077 c -0.01299,0.04486 -0.01267,0.04425 -0.02911,0.05455 -0.0078,0.0049 -0.02175,0.01654 -0.03107,0.02593 -0.01308,0.01318 -0.02072,0.01902 -0.03345,0.02558 -0.0091,0.0047 -0.02152,0.01183 -0.02765,0.01593 -0.01329,0.0088 -0.03465,0.031 -0.04408,0.04574 -0.0049,0.0077 -0.01073,0.01318 -0.02097,0.01987 -0.0078,0.0051 -0.0217,0.01669 -0.03089,0.02574 -0.0092,0.009 -0.01965,0.01775 -0.02327,0.01931 -0.0036,0.0016 -0.02449,0.0072 -0.0464,0.01249 l -0.03984,0.0097 -0.08131,0.0021 c -0.08923,0.0021 -0.109957,0.0021 -0.172663,-1.46e-4 z"
       id="path66" /><path
       style="fill:#ffffff;stroke-width:0.0019647"
       d="m 13.427229,14.661097 c -0.0197,-0.0069 -0.02079,-0.0078 -0.02911,-0.02519 -0.01564,-0.03261 -0.04527,-0.05695 -0.0854,-0.07016 -0.012,-0.0039 -0.01513,-0.0061 -0.02784,-0.01942 -0.02028,-0.02122 -0.02579,-0.02867 -0.02736,-0.03703 -0.0059,-0.03127 -0.02194,-0.06442 -0.04094,-0.08442 -0.01633,-0.0172 -0.02631,-0.02379 -0.05163,-0.03408 -0.0107,-0.0043 -0.02107,-0.0095 -0.02304,-0.01148 -0.0028,-0.0028 -0.0053,-0.015 -0.01133,-0.05642 -0.01043,-0.07108 -0.01042,-0.07043 -5.3e-4,-0.09215 l 0.0081,-0.01767 0.01843,-0.007 c 0.02286,-0.0087 0.0291,-0.01191 0.04399,-0.02246 0.02192,-0.0155 0.03635,-0.0358 0.04923,-0.06921 0.003,-0.0078 0.0058,-0.01386 0.0063,-0.01344 0.0016,0.0016 -0.0036,0.04435 -0.0064,0.0521 -0.007,0.01977 -0.02786,0.04107 -0.05102,0.05206 -0.0085,0.004 -0.026,0.01005 -0.03885,0.01339 -0.02286,0.0059 -0.02343,0.0062 -0.02643,0.01307 -0.0085,0.0195 -0.0086,0.02133 -0.0035,0.05755 0.0071,0.05009 0.0053,0.04517 0.02021,0.05514 0.0072,0.0048 0.02179,0.01683 0.03244,0.02675 0.01065,0.0099 0.02446,0.02148 0.03069,0.02572 0.02828,0.01921 0.04472,0.05111 0.05399,0.10478 0.0032,0.01865 0.0039,0.02 0.01594,0.03302 0.01189,0.01281 0.01291,0.01341 0.03065,0.0176 0.03114,0.0073 0.0561,0.01915 0.07019,0.03324 0.01246,0.01246 0.02404,0.03186 0.03108,0.05209 l 0.0055,0.01572 0.01277,0.0063 c 0.01487,0.0074 0.01234,0.008 -0.0061,0.0016 z"
       id="path67" /><path
       style="fill:#ffffff;stroke-width:0.0019647"
       d="m 13.425452,14.665785 c -0.03393,-0.0127 -0.03474,-0.01318 -0.04098,-0.02421 -0.01488,-0.02635 -0.03593,-0.04498 -0.06809,-0.06026 -0.01949,-0.0093 -0.01988,-0.0096 -0.04372,-0.03634 -0.01671,-0.01876 -0.02466,-0.02925 -0.02604,-0.03438 -0.0037,-0.01368 -0.0156,-0.04119 -0.02274,-0.0525 -0.01503,-0.02381 -0.04369,-0.04706 -0.07198,-0.05839 -0.01231,-0.0049 -0.01542,-0.008 -0.01805,-0.01767 -0.0025,-0.0093 -0.01516,-0.09978 -0.01619,-0.115916 -0.0011,-0.01744 -10e-4,-0.01794 0.0068,-0.03604 0.0081,-0.0186 0.0095,-0.02127 0.01102,-0.01979 4.5e-4,5.29e-4 -0.0032,0.01 -0.0081,0.02119 l -0.0089,0.02037 0.0083,0.0592 c 0.0046,0.03256 0.0094,0.06186 0.0107,0.06511 0.0018,0.0043 0.0053,0.0072 0.01305,0.01066 0.04222,0.01892 0.0432,0.0195 0.05897,0.03484 0.0086,0.0083 0.01818,0.01921 0.02137,0.02418 0.0077,0.01204 0.01664,0.03399 0.02255,0.05556 0.0058,0.02106 0.0059,0.02125 0.0271,0.04375 0.01478,0.01566 0.01808,0.01815 0.02825,0.02133 0.03858,0.01201 0.07191,0.03898 0.08706,0.07044 0.0046,0.0094 0.0093,0.01781 0.01053,0.01857 0.0012,7.94e-4 0.01288,0.0052 0.02587,0.0097 0.01299,0.0046 0.0214,0.0083 0.0187,0.0083 -0.0027,-1.9e-5 -0.0142,-0.0035 -0.02554,-0.0078 z"
       id="path68" /><path
       style="fill:#ffffff;stroke-width:0.0019647"
       d="m 13.474569,14.660136 c -0.0281,-0.0013 -0.03636,-0.003 -0.04067,-0.0083 -0.0012,-0.0016 -0.0036,-0.0082 -0.0054,-0.01506 -0.01622,-0.06271 -0.03631,-0.08065 -0.105121,-0.0939 -0.02284,-0.0044 -0.02499,-0.0052 -0.03208,-0.01209 -0.0042,-0.004 -0.0084,-0.0088 -0.0094,-0.01056 -9.52e-4,-0.0019 -0.0036,-0.01545 -0.0059,-0.03045 -0.0084,-0.05506 -0.01465,-0.07107 -0.03773,-0.09624 -0.0058,-0.0063 -0.01446,-0.01688 -0.01916,-0.02336 -0.01781,-0.02455 -0.04288,-0.04481 -0.0682,-0.05511 -0.0058,-0.0024 -0.0109,-0.0047 -0.01142,-0.0052 -0.0026,-0.0026 -0.0084,-0.05501 -0.0068,-0.06074 0.0037,-0.01297 0.0062,-0.01471 0.02583,-0.01826 0.02267,-0.0041 0.04858,-0.0118 0.06136,-0.01828 0.0053,-0.0027 0.01449,-0.0094 0.02039,-0.01503 l 0.01071,-0.01011 -7.94e-4,0.02133 c -6.35e-4,0.0176 -0.0014,0.02178 -0.0043,0.02387 -0.0046,0.0034 -0.02127,0.0062 -0.05828,0.0099 -0.01675,0.0016 -0.03532,0.0037 -0.04126,0.0044 l -0.01081,0.0013 -5.02e-4,0.0079 c -2.91e-4,0.0043 2.91e-4,0.0091 0.0012,0.01056 0.0011,0.0016 0.01088,0.0041 0.02507,0.0063 0.04308,0.0066 0.07968,0.02275 0.0879,0.03868 0.0015,0.0029 0.0047,0.0173 0.007,0.03189 0.0055,0.03482 0.01361,0.06538 0.02331,0.08841 0.0079,0.01865 0.0079,0.01865 0.0089,0.05108 5.55e-4,0.01783 0.0016,0.03399 0.0024,0.03591 0.0023,0.006 0.0082,0.0075 0.03373,0.0087 l 0.02477,0.0011 0.02474,0.0186 c 0.01361,0.01024 0.03378,0.02392 0.04483,0.03043 0.01105,0.0065 0.02053,0.01323 0.02106,0.01498 5.29e-4,0.0019 0.0023,0.01577 0.0039,0.03118 0.0016,0.01543 0.0035,0.0289 0.0041,0.02996 0.0014,0.0024 0.331024,0.0028 0.331038,5.3e-4 5e-6,-7.94e-4 0.0017,-0.01333 0.0039,-0.02785 0.0068,-0.04621 0.01208,-0.05906 0.02901,-0.07053 0.02484,-0.01683 0.03526,-0.01992 0.08379,-0.02484 0.02964,-0.003 0.0378,-0.0049 0.0408,-0.0095 7.14e-4,-0.0011 0.0019,-0.0083 0.0026,-0.01593 0.0018,-0.02024 0.007,-0.0485 0.01,-0.05427 0.0014,-0.0028 0.01176,-0.01389 0.02303,-0.02474 0.02392,-0.02304 0.023,-0.02268 0.06939,-0.02728 0.0172,-0.0016 0.03436,-0.0037 0.03814,-0.0045 l 0.0069,-0.0013 5.02e-4,-0.07748 c 2.91e-4,-0.04262 -2.29e-4,-0.07823 -0.0011,-0.07914 -8.99e-4,-7.94e-4 -0.01175,-0.0034 -0.02409,-0.0056 -0.03903,-0.0068 -0.0349,-0.0046 -0.04272,-0.02331 -0.01095,-0.02622 -0.04513,-0.09435 -0.05382,-0.107235 -0.0044,-0.0065 -0.013,-0.01797 -0.01917,-0.02553 l -0.01123,-0.01376 -0.0012,-0.03658 c -6.88e-4,-0.02011 -0.0017,-0.03786 -0.0023,-0.03943 -0.003,-0.0078 -0.271945,-0.01146 -0.482298,-0.0066 -0.157701,0.0036 -0.157392,0.0036 -0.152613,7.94e-4 0.002,-0.0011 0.02717,-0.0033 0.05599,-0.0048 0.02883,-0.0016 0.07186,-0.0045 0.09564,-0.0066 0.09443,-0.0085 0.137397,-0.01048 0.231835,-0.01069 l 0.09234,-1.91e-4 0.01572,0.0052 c 0.0176,0.0058 0.03643,0.0083 0.09575,0.01251 0.02638,0.0019 0.04348,0.004 0.04853,0.0061 0.0086,0.0034 0.0084,0.0029 0.01095,0.03349 0.0018,0.02217 0.0098,0.05387 0.01727,0.06871 0.0068,0.01355 0.02406,0.03238 0.03193,0.03488 0.0021,7.94e-4 0.005,0.0039 0.0065,0.0072 0.0048,0.01082 0.02343,0.03223 0.03705,0.04254 0.0073,0.0056 0.01996,0.01331 0.02807,0.01722 0.0081,0.0039 0.01605,0.0078 0.01765,0.0087 0.0018,0.0011 0.0042,0.0089 0.0065,0.02201 0.0031,0.01741 0.0036,0.03143 0.0037,0.0944 5e-5,0.09516 -0.0015,0.104072 -0.01835,0.10641 -0.01182,0.0016 -0.03748,0.01024 -0.0527,0.01767 -0.01515,0.0074 -0.03582,0.02716 -0.04358,0.04166 -0.0029,0.0054 -0.008,0.01738 -0.01134,0.02661 -0.0046,0.01259 -0.0074,0.01757 -0.01143,0.01995 -0.003,0.0019 -0.0108,0.0081 -0.01745,0.01413 -0.01103,0.01 -0.01357,0.01132 -0.02902,0.01498 -0.03558,0.0084 -0.06447,0.02474 -0.07904,0.04459 -0.01,0.0136 -0.01831,0.03026 -0.02235,0.04471 l -0.0033,0.01177 -0.0165,0.0037 c -0.01505,0.0033 -0.02825,0.0037 -0.150104,0.0042 -0.07348,2.65e-4 -0.146419,-7.9e-5 -0.162088,-7.94e-4 z"
       id="path69" /><path
       style="fill:#ffffff;stroke-width:0.0019647"
       d="m 13.131202,14.280843 c 0,-0.0038 3.97e-4,-0.0053 9e-4,-0.0034 5.03e-4,0.0019 5.03e-4,0.005 0,0.0069 -5.03e-4,0.0019 -9e-4,2.65e-4 -9e-4,-0.0034 z"
       id="path70" /><path
       style="fill:#ffffff;stroke-width:0.0019647"
       d="m 13.473174,14.660245 c -0.03831,-0.0016 -0.03854,-0.0019 -0.04621,-0.02886 -0.0112,-0.03951 -0.0255,-0.05988 -0.0511,-0.07278 -0.01226,-0.0062 -0.03526,-0.01254 -0.06665,-0.01849 -0.0095,-0.0019 -0.0124,-0.0035 -0.01991,-0.01148 -0.0062,-0.0067 -0.0091,-0.01164 -0.0099,-0.01709 -0.01144,-0.07593 -0.01731,-0.09248 -0.04247,-0.119658 -0.005,-0.0054 -0.01494,-0.01741 -0.02205,-0.02663 -0.01779,-0.0231 -0.03968,-0.04027 -0.0637,-0.05004 -0.01328,-0.0054 -0.01284,-0.0044 -0.01717,-0.03793 -0.0029,-0.02273 -0.0023,-0.02987 0.0034,-0.03864 0.0023,-0.0035 0.0065,-0.0051 0.02046,-0.0076 0.02303,-0.0042 0.04933,-0.01191 0.06112,-0.01789 0.0052,-0.0026 0.01453,-0.0094 0.02075,-0.01514 l 0.01132,-0.01035 -7.94e-4,0.02125 c -6.61e-4,0.01752 -0.0014,0.0217 -0.0043,0.02381 -0.0049,0.0036 -0.02154,0.0063 -0.06712,0.01087 -0.02161,0.0021 -0.0404,0.0044 -0.04175,0.0048 -0.0027,0.0011 -0.0033,0.01426 -7.67e-4,0.01826 9.26e-4,0.0013 0.01155,0.0042 0.02459,0.0062 0.04312,0.0069 0.07795,0.02185 0.08746,0.03748 0.0021,0.0034 0.0054,0.01725 0.0079,0.03284 0.0056,0.03483 0.01399,0.06655 0.02357,0.08935 0.0076,0.01805 0.0076,0.01842 0.0087,0.0507 6.09e-4,0.01789 0.0017,0.03405 0.0024,0.03591 0.0023,0.0059 0.0083,0.0074 0.03385,0.0086 l 0.02494,0.0011 0.01572,0.01217 c 0.0183,0.01416 0.04628,0.03307 0.06229,0.04209 0.0062,0.0035 0.01167,0.0078 0.01222,0.0096 5.56e-4,0.0019 0.0023,0.01606 0.004,0.03163 0.0019,0.01805 0.0039,0.02892 0.0055,0.02994 0.0014,7.94e-4 0.0759,0.0013 0.165587,0.0011 l 0.16307,-5.3e-4 0.0014,-0.0069 c 7.68e-4,-0.0038 0.0032,-0.01797 0.0053,-0.03151 0.0065,-0.04184 0.01216,-0.05209 0.03649,-0.06662 0.01688,-0.01008 0.02968,-0.01365 0.06056,-0.01693 0.03649,-0.0039 0.04846,-0.0061 0.05261,-0.0098 0.0023,-0.0021 0.0038,-0.0076 0.0047,-0.0172 0.0019,-0.02043 0.007,-0.04868 0.01,-0.05447 0.0014,-0.0028 0.01176,-0.01389 0.02303,-0.02474 0.02421,-0.02334 0.02294,-0.02286 0.0756,-0.02826 0.01976,-0.0021 0.0368,-0.0042 0.03786,-0.0049 0.0026,-0.0016 0.0026,-0.155512 -3.5e-5,-0.15715 -0.0011,-7.93e-4 -0.01191,-0.003 -0.02407,-0.0051 -0.03907,-0.0069 -0.03357,-0.0029 -0.04748,-0.03423 -0.01579,-0.03557 -0.04059,-0.08431 -0.04967,-0.09759 -0.0039,-0.0057 -0.01216,-0.01664 -0.01829,-0.02421 l -0.01116,-0.01376 -0.0013,-0.03733 c -10e-4,-0.03015 -0.0019,-0.03775 -0.0043,-0.03954 -0.0019,-0.0013 -0.0206,-0.0027 -0.05061,-0.0036 -0.02619,-7.94e-4 -0.05999,-0.0021 -0.07512,-0.0032 -0.04131,-0.0027 -0.224259,-0.0021 -0.35954,0.0011 -0.145751,0.0035 -0.152457,0.0035 -0.147699,7.94e-4 0.002,-0.0011 0.02673,-0.0033 0.05501,-0.0048 0.02829,-0.0016 0.07132,-0.0045 0.09563,-0.0066 0.10044,-0.0089 0.164472,-0.01188 0.252527,-0.01188 0.05166,-10e-6 0.06709,5.3e-4 0.07564,0.0029 0.02734,0.0075 0.03342,0.0088 0.04905,0.01069 0.0092,0.0011 0.03547,0.0033 0.05841,0.005 0.02718,0.0019 0.04443,0.0041 0.04951,0.0061 0.0086,0.0034 0.0084,0.0027 0.01095,0.03322 0.0019,0.0217 0.0086,0.04982 0.01572,0.06522 0.0071,0.01537 0.02045,0.03117 0.03138,0.03706 0.0038,0.0021 0.0069,0.0045 0.0069,0.0055 0,0.0041 0.01854,0.02724 0.03128,0.03905 0.0097,0.009 0.02009,0.01598 0.03497,0.02357 l 0.02118,0.01079 0.0035,0.01945 c 0.0029,0.01624 0.0035,0.03179 0.0036,0.09434 1.52e-4,0.07572 -0.0011,0.09254 -0.0073,0.10241 -0.0016,0.0024 -0.0048,0.0044 -0.0073,0.0044 -0.0081,0 -0.03729,0.0096 -0.05393,0.01781 -0.02814,0.01384 -0.04383,0.03268 -0.05726,0.06878 -0.0046,0.01241 -0.0076,0.01767 -0.01154,0.01998 -0.0029,0.0019 -0.01071,0.0081 -0.01736,0.01408 -0.01102,0.01 -0.01357,0.01132 -0.02898,0.01497 -0.03296,0.0078 -0.05931,0.02191 -0.07554,0.04034 -0.0097,0.01103 -0.02173,0.03373 -0.02593,0.04897 l -0.0032,0.01177 -0.0165,0.0037 c -0.01505,0.0033 -0.02828,0.0037 -0.150103,0.0042 -0.07348,2.65e-4 -0.147048,-2.9e-5 -0.163484,-7.94e-4 z"
       id="path72" /><path
       style="fill:#ffffff;stroke-width:0.0019647"
       d="m 13.427229,14.661097 c -0.01964,-0.0069 -0.02067,-0.0078 -0.02923,-0.02529 -0.01612,-0.03299 -0.04517,-0.05685 -0.08528,-0.07005 -0.012,-0.0039 -0.01513,-0.0061 -0.02784,-0.01942 -0.02028,-0.02122 -0.02579,-0.02867 -0.02736,-0.03703 -0.0058,-0.03102 -0.02154,-0.06353 -0.04059,-0.08392 -0.01629,-0.01744 -0.02641,-0.02418 -0.05198,-0.03457 -0.0107,-0.0043 -0.02111,-0.0096 -0.02312,-0.01156 -0.0029,-0.0029 -0.0052,-0.01445 -0.01134,-0.05642 -0.01031,-0.07084 -0.01031,-0.07035 -5.3e-4,-0.09206 0.0088,-0.01955 0.0049,-0.01656 0.03769,-0.02921 0.01921,-0.0074 0.03348,-0.01675 0.0485,-0.0317 0.01123,-0.01116 0.01571,-0.01762 0.02389,-0.03438 0.0055,-0.01135 0.01115,-0.024 0.01248,-0.02813 0.0013,-0.0041 0.0028,-0.0071 0.0034,-0.0066 0.0017,0.0016 -0.0033,0.04408 -0.0062,0.05226 -0.0068,0.01939 -0.02787,0.04105 -0.05036,0.05187 -0.0081,0.0039 -0.02563,0.01 -0.0389,0.01352 l -0.02413,0.0064 -0.005,0.01177 c -0.006,0.01418 -0.0061,0.02048 -5.29e-4,0.0594 0.0055,0.03881 0.0058,0.03941 0.01921,0.04803 0.0062,0.004 0.02054,0.0158 0.03189,0.02625 0.01135,0.01045 0.0256,0.02241 0.03167,0.02656 0.02843,0.01942 0.04543,0.0534 0.05473,0.109421 0.0023,0.01371 0.0029,0.01476 0.01545,0.02809 0.01294,0.01368 0.01327,0.01389 0.02978,0.0177 0.03025,0.007 0.05575,0.01879 0.06942,0.03208 0.01213,0.0118 0.02344,0.02961 0.0298,0.04697 0.0029,0.0078 0.006,0.01619 0.007,0.01871 0.0012,0.0029 0.0064,0.0066 0.01411,0.01021 0.01468,0.0068 0.01137,0.0073 -0.0066,0.0011 z"
       id="path73" /><path
       style="fill:#ffffff;stroke-width:0.0019647"
       d="m 13.473174,14.660245 c -0.03883,-0.0016 -0.03812,-0.0013 -0.04764,-0.03274 -0.0087,-0.02868 -0.01533,-0.04123 -0.02856,-0.05375 -0.01659,-0.01569 -0.03261,-0.02236 -0.07372,-0.03072 -0.02345,-0.0048 -0.02489,-0.0053 -0.03292,-0.01323 -0.0095,-0.0093 -0.01,-0.01082 -0.01604,-0.04957 -0.0023,-0.01514 -0.0068,-0.03483 -0.0099,-0.04379 -0.0054,-0.01569 -0.01814,-0.03627 -0.02752,-0.04462 -0.0024,-0.0021 -0.0097,-0.0108 -0.01605,-0.01918 -0.02159,-0.02829 -0.04482,-0.04742 -0.06984,-0.05753 -0.01095,-0.0044 -0.01142,-0.0049 -0.01344,-0.01405 -0.0012,-0.0052 -0.0028,-0.01101 -0.0037,-0.01291 -8.47e-4,-0.0019 -10e-4,-0.0048 -3.7e-4,-0.0065 6.61e-4,-0.0016 3.44e-4,-0.0026 -7.15e-4,-0.0019 -0.0017,0.0011 -0.0025,-0.0013 -0.0048,-0.0131 -3.7e-4,-0.0019 3.44e-4,-0.0029 0.0017,-0.0024 0.0017,5.29e-4 0.0024,-0.0019 0.0024,-0.0078 0,-0.0051 0.0016,-0.01143 0.0039,-0.01529 0.0037,-0.0063 0.0049,-0.0068 0.02538,-0.01098 0.04328,-0.0088 0.06278,-0.01712 0.08113,-0.03466 l 0.0085,-0.0082 -7.41e-4,0.02132 c -6.08e-4,0.01762 -0.0014,0.02178 -0.0042,0.02387 -0.0049,0.0036 -0.02154,0.0063 -0.06712,0.01087 -0.02161,0.0021 -0.04051,0.0044 -0.042,0.0049 -0.002,7.94e-4 -0.0024,0.0034 -0.0017,0.0098 5.56e-4,0.0049 0.0013,0.0093 0.0018,0.0097 4.24e-4,5.29e-4 0.01156,0.0026 0.02477,0.0049 0.04328,0.0074 0.0755,0.02114 0.08603,0.03674 0.0028,0.0041 0.0057,0.01601 0.0095,0.03807 0.0063,0.03664 0.01216,0.05853 0.02221,0.08245 0.0068,0.01609 0.0071,0.01794 0.0086,0.04994 0.0018,0.03802 0.0024,0.04152 0.0077,0.04434 0.0021,0.0011 0.01515,0.0026 0.02896,0.0033 l 0.02511,0.0013 0.01866,0.0141 c 0.02201,0.01664 0.04377,0.03134 0.05934,0.04012 0.0062,0.0035 0.01163,0.0078 0.01215,0.0096 8.47e-4,0.003 0.0029,0.01934 0.0061,0.04986 l 0.0012,0.01119 0.0082,0.0011 c 0.0045,5.3e-4 0.07895,7.94e-4 0.165397,5.3e-4 l 0.157177,-5.3e-4 0.0014,-0.0069 c 7.67e-4,-0.0038 0.0031,-0.01796 0.0053,-0.03151 0.0065,-0.04184 0.01216,-0.05209 0.03649,-0.06662 0.01735,-0.01037 0.02967,-0.01365 0.06727,-0.01789 0.01902,-0.0021 0.03659,-0.0044 0.03904,-0.005 0.0074,-0.0019 0.01011,-0.0069 0.01149,-0.02141 0.002,-0.02037 0.0072,-0.04841 0.01005,-0.05412 0.0014,-0.0028 0.01176,-0.01389 0.02303,-0.02474 0.02418,-0.02328 0.02258,-0.0227 0.07554,-0.02831 0.01998,-0.0021 0.03712,-0.0043 0.03808,-0.0049 0.0022,-0.0013 0.0023,-0.152159 1.3e-4,-0.155588 -8.74e-4,-0.0013 -0.01432,-0.0047 -0.0299,-0.0074 -0.01559,-0.0027 -0.02891,-0.0056 -0.02961,-0.0064 -6.88e-4,-7.94e-4 -0.0055,-0.01114 -0.01059,-0.02302 -0.01325,-0.03072 -0.03918,-0.08207 -0.04962,-0.09823 -0.0049,-0.0076 -0.01392,-0.01995 -0.02008,-0.02751 l -0.01121,-0.01376 -0.0013,-0.03733 c -0.0011,-0.02988 -0.0019,-0.03777 -0.0043,-0.03954 -0.0019,-0.0013 -0.02052,-0.0027 -0.05057,-0.0036 -0.02619,-7.94e-4 -0.05999,-0.0021 -0.07511,-0.0032 -0.04131,-0.0027 -0.224259,-0.0021 -0.35954,0.0011 -0.14549,0.0035 -0.15245,0.0035 -0.147736,7.94e-4 0.002,-0.0011 0.02627,-0.0033 0.05403,-0.0048 0.02777,-0.0016 0.07082,-0.0045 0.09567,-0.0067 0.106355,-0.0093 0.180872,-0.01249 0.265235,-0.0114 0.0585,7.93e-4 0.06376,0.0011 0.07564,0.0051 0.01655,0.0056 0.04408,0.0094 0.09567,0.01302 0.02744,0.0019 0.04432,0.004 0.04951,0.0061 0.0071,0.0029 0.008,0.0039 0.0088,0.01132 5.29e-4,0.0045 0.0019,0.01662 0.0031,0.02693 0.0028,0.02413 0.0085,0.04693 0.01551,0.06179 0.0065,0.01376 0.02045,0.02998 0.03051,0.0354 0.0039,0.0021 0.0071,0.0046 0.0071,0.0055 0,0.003 0.01239,0.01984 0.02242,0.0305 0.01319,0.014 0.02587,0.02312 0.04721,0.03392 l 0.01779,0.009 0.0035,0.01947 c 0.003,0.0164 0.0035,0.03134 0.0036,0.09439 1.14e-4,0.07568 -0.0011,0.09256 -0.0074,0.10241 -0.0017,0.0026 -0.0048,0.0044 -0.0076,0.0044 -0.0027,0 -0.01347,0.0028 -0.02402,0.0061 -0.04863,0.01545 -0.07004,0.0353 -0.08685,0.08049 -0.0046,0.01241 -0.0076,0.01767 -0.01154,0.01998 -0.0029,0.0019 -0.01065,0.008 -0.01723,0.01397 -0.01072,0.0097 -0.01368,0.01127 -0.02849,0.01495 -0.03373,0.0084 -0.0593,0.0218 -0.07513,0.0394 -0.01045,0.01162 -0.0226,0.03421 -0.02695,0.05007 l -0.0032,0.0118 -0.01652,0.0036 c -0.01502,0.0033 -0.02864,0.0037 -0.150118,0.0042 -0.07348,2.64e-4 -0.147048,-2.7e-5 -0.163484,-7.94e-4 z"
       id="path74" /><path
       style="fill:#ffffff;stroke-width:0.0628706"
       d="m 22.850125,6.5794905 c -0.155731,-0.15163 -0.471407,-0.428992 -0.817608,-0.718378 -0.20684,-0.172892 -0.40715,-0.342643 -0.445133,-0.377221 -0.03798,-0.03458 -0.158497,-0.130821 -0.267809,-0.213871 -0.109311,-0.08305 -0.291097,-0.238654 -0.403969,-0.345787 -0.31863,-0.302432 -0.763868,-0.665847 -0.816063,-0.666094 -0.02594,-1.21e-4 -0.04715,-0.04266 -0.04715,-0.09453 0,-0.191302 0.293207,-0.09712 0.587199,0.188611 0.160102,0.155604 0.313566,0.282916 0.341032,0.282916 0.02747,0 0.09072,0.05658 0.140567,0.125741 0.04984,0.06916 0.120575,0.12574 0.157176,0.12574 0.0366,0 0.10733,0.05658 0.157176,0.125741 0.04985,0.06916 0.11373,0.125743 0.141965,0.125743 0.02823,0 0.175071,0.127312 0.326301,0.282916 0.15123,0.155604 0.299533,0.282917 0.329563,0.282917 0.03003,0 0.09538,0.05658 0.145227,0.12574 0.04985,0.06916 0.120576,0.125741 0.157177,0.125741 0.0366,0 0.10733,0.05658 0.157176,0.12574 0.04985,0.06916 0.114696,0.125744 0.144111,0.125744 0.09885,0 0.233112,0.178469 0.233112,0.309861 0,0.135919 -0.112066,0.167868 -0.220047,0.06273 z"
       id="path76" /><path
       style="fill:#ffffff;stroke-width:0.00785881"
       d="m 23.844614,5.6901845 c -0.0017,-0.0054 -0.007,-0.02265 -0.01184,-0.03834 -0.01154,-0.03762 -0.02778,-0.05112 -0.07506,-0.06244 -0.05608,-0.01341 -0.07456,-0.02355 -0.07456,-0.04082 0,-0.0083 -0.0059,-0.02764 -0.01316,-0.04289 -0.01393,-0.02936 -0.05976,-0.05645 -0.09687,-0.05724 -0.02189,-5.3e-4 -0.04715,-0.01659 -0.04715,-0.0301 0,-0.0048 -0.0059,-0.02344 -0.01301,-0.04133 -0.01,-0.025 -0.02046,-0.03591 -0.04519,-0.04714 -0.0177,-0.008 -0.04102,-0.01479 -0.05182,-0.01503 -0.02316,-5.3e-4 -0.04708,-0.01678 -0.04733,-0.03222 -9.5e-5,-0.006 -0.0067,-0.0254 -0.01478,-0.0431 -0.01123,-0.02471 -0.02214,-0.03519 -0.04714,-0.04519 -0.01789,-0.0072 -0.04155,-0.01302 -0.05258,-0.01302 -0.02457,0 -0.04,-0.01447 -0.04715,-0.04424 -0.01038,-0.0432 -0.02595,-0.06374 -0.05808,-0.0766 -0.01754,-0.007 -0.04092,-0.01275 -0.05194,-0.01275 -0.02457,0 -0.04,-0.01447 -0.04715,-0.04424 -0.01038,-0.0432 -0.02595,-0.06374 -0.05808,-0.0766 -0.01754,-0.007 -0.04092,-0.01275 -0.05194,-0.01275 -0.02636,0 -0.03933,-0.01402 -0.05016,-0.05424 -0.01132,-0.04205 -0.02999,-0.06049 -0.07245,-0.07157 -0.07285,-0.01902 -0.07127,-0.01794 -0.08427,-0.05669 -0.01666,-0.04965 -0.03251,-0.06637 -0.07289,-0.07691 -0.07309,-0.01908 -0.07124,-0.01781 -0.08463,-0.05789 -0.01525,-0.04564 -0.04456,-0.07318 -0.08483,-0.07972 -0.05327,-0.0087 -0.06383,-0.01651 -0.07345,-0.05472 -0.01074,-0.04265 -0.04209,-0.07213 -0.08393,-0.07891 -0.05164,-0.0084 -0.06324,-0.01664 -0.0727,-0.05179 -0.01168,-0.04337 -0.04424,-0.07526 -0.08306,-0.08135 -0.04812,-0.0075 -0.06876,-0.02122 -0.07451,-0.04934 -0.01067,-0.05215 -0.05349,-0.08847 -0.104334,-0.08847 -0.02683,0 -0.04835,-0.02204 -0.05909,-0.06048 -0.01081,-0.03871 -0.0384,-0.06309 -0.07839,-0.06928 -0.0492,-0.0076 -0.06554,-0.0204 -0.07712,-0.06032 -0.01237,-0.04267 -0.03886,-0.06691 -0.08006,-0.07328 -0.0492,-0.0076 -0.06554,-0.0204 -0.07712,-0.06032 -0.01237,-0.04267 -0.03886,-0.06691 -0.08006,-0.07328 -0.04805,-0.0074 -0.06552,-0.02059 -0.07635,-0.05752 -0.01614,-0.05503 -0.03198,-0.06652 -0.115392,-0.08364 l -0.02161,-0.0044 v -0.07404 c 0,-0.04073 0.0027,-0.07517 0.0059,-0.07655 0.0032,-0.0013 0.04148,-0.0013 0.08498,2.7e-5 l 0.07908,0.0026 0.0096,0.04661 c 0.0082,0.03982 0.01321,0.04847 0.03418,0.05931 0.0135,0.007 0.04517,0.01458 0.07037,0.01685 0.05114,0.0046 0.05491,0.0077 0.06846,0.05506 0.01087,0.038 0.03213,0.05516 0.08144,0.06574 0.04689,0.01005 0.06892,0.02283 0.06892,0.03993 0,0.02807 0.02249,0.06819 0.04457,0.07949 0.01223,0.0063 0.03638,0.01379 0.05367,0.01672 0.041,0.007 0.05518,0.01839 0.06134,0.04954 0.0089,0.04512 0.02732,0.06399 0.07516,0.07713 0.06754,0.01855 0.07961,0.02508 0.07961,0.04297 0,0.0204 0.02193,0.06357 0.03854,0.07586 0.0069,0.0051 0.02846,0.01339 0.04791,0.01841 0.05197,0.01341 0.07073,0.02424 0.07073,0.04082 0,0.01913 0.02245,0.06246 0.03854,0.07437 0.0069,0.0051 0.02846,0.01336 0.04791,0.01834 0.06151,0.01574 0.06841,0.02043 0.07398,0.05011 0.0078,0.04159 0.03727,0.07176 0.08102,0.08295 0.06389,0.01632 0.07055,0.02077 0.07616,0.05065 0.0085,0.04556 0.03775,0.07306 0.08937,0.08417 0.05544,0.01193 0.06163,0.01651 0.06798,0.05033 0.0084,0.04474 0.03789,0.07224 0.0892,0.08317 0.05296,0.01127 0.05903,0.01635 0.07127,0.05962 0.01233,0.04358 0.04514,0.07028 0.09473,0.0771 0.04453,0.0061 0.0508,0.01156 0.06245,0.05425 0.01221,0.04474 0.0358,0.06555 0.08669,0.07649 0.05518,0.01185 0.059,0.01487 0.0711,0.05591 0.01413,0.0479 0.03496,0.0667 0.08607,0.07769 0.05469,0.01175 0.06206,0.0173 0.06847,0.05146 0.0084,0.04475 0.03658,0.07095 0.08791,0.08174 0.04848,0.01019 0.07242,0.02957 0.07242,0.05863 0,0.03324 0.0353,0.06455 0.08476,0.07519 0.05651,0.01215 0.06295,0.0173 0.07335,0.0586 0.0047,0.01849 0.01608,0.04049 0.02538,0.0489 0.01921,0.01736 0.06149,0.03317 0.08867,0.03317 0.0209,0 0.0239,0.0089 0.02921,0.08645 0.004,0.05902 -0.01028,0.20433 -0.02013,0.20433 -0.0037,0 -0.008,-0.0044 -0.0097,-0.0098 z"
       id="path85" /></g></svg>
